<?xml version="1.0" encoding="UTF-8"?>
<svg version="1.1" viewBox="0 0 1600 1600" width="1280" height="1280" xmlns="http://www.w3.org/2000/svg">
<path transform="translate(772 131)" d="m0 0c0.742-0.00486 1.48-0.00973 2.25-0.0147 5.61-0.0363 11.2-0.0527 16.8-0.0595 0.826-0.00115 1.65-0.0023 2.5-0.00349 25.8-0.0249 51.2 0.52 76.8 4 2.41 0.327 4.82 0.641 7.24 0.953 24.6 3.23 48.9 8.18 73 13.9 1.86 0.438 3.72 0.871 5.58 1.3 16.7 3.91 32.8 9.42 49 15 2.81 0.966 5.63 1.92 8.45 2.88 4.06 1.38 8.08 2.84 12.1 4.34 0.981 0.365 1.96 0.73 2.97 1.11 16.8 6.32 33.1 13.4 49.2 21.5 2.44 1.21 4.88 2.41 7.33 3.6 16.5 8.04 32.4 17 48.1 26.5 0.577 0.348 1.15 0.695 1.75 1.05 8.47 5.12 16.6 10.6 24.7 16.3 1.74 1.21 3.48 2.42 5.22 3.62 9.05 6.3 18 12.6 26.8 19.4 0.782 0.603 0.782 0.603 1.58 1.22 17.7 13.7 34.9 27.9 50.5 43.9 1.79 1.92 1.79 1.92 3.93 2.86v2c0.54 0.214 1.08 0.428 1.64 0.648 3.21 1.84 5.61 4.35 8.18 6.98 0.743 0.744 0.743 0.744 1.5 1.5 3.43 3.47 6.65 7.1 9.84 10.8 3.82 4.32 7.85 8.46 11.9 12.6 0.645 0.679 1.29 1.36 1.96 2.06 0.876 0.913 0.876 0.913 1.77 1.85 1.27 1.57 1.27 1.57 1.27 3.57h2c1.37 1.51 2.67 3.09 3.94 4.69 3 3.76 6.03 7.48 9.17 11.1 5.6 6.52 10.8 13.2 15.9 20.2 0.731 1 0.731 1 1.48 2.02 16.8 23.1 32.2 46.6 46.1 71.5 1.68 2.99 3.43 5.94 5.19 8.89 22.5 38.5 38.5 82 51.2 125 0.311 1.04 0.623 2.08 0.944 3.15 13.1 44.2 21 89.9 24.1 136 0.047 0.657 0.094 1.31 0.142 1.99 1.02 14.5 1.1 28.9 1.11 43.4 0.00101 1.91 0.00101 1.91 0.00204 3.85-0.0295 35.3-2.41 69.9-8.25 105-0.127 0.767-0.255 1.53-0.386 2.32-4.85 29.1-11.7 57.3-20.2 85.6-0.224 0.737-0.448 1.47-0.679 2.23-4.79 15.7-10.2 31.1-16.3 46.3-0.252 0.632-0.505 1.26-0.765 1.91-5.01 12.5-10.5 24.7-16.3 36.9-1.15 2.44-2.27 4.9-3.38 7.36-5.13 11.3-11.2 22.1-17.5 32.9-1.2 2.08-2.38 4.17-3.55 6.28-18.7 33.6-41.2 64.7-66.2 93.9-3.05 3.58-5.89 7.25-8.57 11.1-0.37 0.427-0.74 0.853-1.12 1.29h-2c-0.271 0.593-0.542 1.19-0.822 1.8-1.16 2.17-2.35 3.68-4.03 5.47-0.592 0.631-1.18 1.26-1.79 1.91-0.653 0.684-1.31 1.37-1.98 2.07-1.03 1.09-1.03 1.09-2.08 2.19-6.51 6.82-13.1 13.5-19.8 20.2-0.512 0.514-1.02 1.03-1.55 1.56-5.8 5.83-11.7 11.5-17.9 16.8-1.2 1.05-2.4 2.09-3.61 3.14-3.79 3.29-7.59 6.58-11.4 9.86-0.575 0.496-1.15 0.992-1.74 1.5-7.26 6.25-14.7 12.3-22.3 18-2.23 1.69-4.46 3.38-6.69 5.08-9.28 7.04-18.6 13.9-28.4 20.2-1.91 1.24-3.81 2.5-5.71 3.76-40.4 26.7-84 48.1-129 65.4-1.74 0.668-1.74 0.668-3.52 1.35-33.5 12.7-68.3 21.9-103 28.7-1.37 0.264-1.37 0.264-2.77 0.534-88.8 16.8-180 14.9-281-8.53-0.674-0.164-1.35-0.328-2.04-0.497-33.9-8.29-67.2-19.8-99.1-34.2-2.68-1.21-5.38-2.39-8.08-3.55-22.3-9.7-43.8-21.5-64.8-33.8-0.74-0.426-1.48-0.853-2.24-1.29-7.94-4.66-15.6-9.81-23.2-14.9-2.38-1.59-4.77-3.17-7.16-4.76-8.66-5.76-17.1-11.7-25.4-18-1.48-1.11-2.95-2.23-4.43-3.34-8.76-6.63-17.3-13.5-25.6-20.7-0.723-0.623-1.45-1.25-2.19-1.89-4.8-4.16-9.48-8.44-14.2-12.7-2.11-1.91-4.24-3.79-6.39-5.64-9.2-8.03-18.2-16.3-26.2-25.5-2.71-3.05-5.62-5.86-8.57-8.66-1.43-1.59-1.43-1.59-1.43-3.59h-2c-1.27-1.22-1.27-1.22-2.81-3.06-0.62-0.731-1.24-1.46-1.88-2.21l-2.31-2.72c-0.986-1.13-1.97-2.25-2.96-3.38-6.4-7.29-12.6-14.7-18.5-22.4-2.26-2.91-4.61-5.74-6.98-8.57-5.4-6.57-10.2-13.5-15.1-20.5-1.42-2.05-2.86-4.1-4.29-6.15-33.3-47.7-60.3-100-79.2-155-0.343-0.995-0.687-1.99-1.04-3.01-12.4-36.1-21.5-72.4-28-110-0.311-1.76-0.622-3.53-0.934-5.29-14.4-83.4-8.82-171 69.9-410 0.436-0.811 0.871-1.62 1.32-2.46 8.77-16.3 17.9-32.4 28.4-47.7 1.6-2.34 3.19-4.69 4.77-7.04 6.61-9.78 13.2-19.5 20.5-28.8 0.565-0.733 1.13-1.47 1.71-2.22 1.75-2.27 3.52-4.52 5.29-6.78 0.819-1.06 1.64-2.12 2.46-3.18 10.2-13.2 21.1-25.7 32.5-37.8l1.92-2.06c19.8-21.2 19.8-21.2 24.1-24.9h2v-2c1.54-1.52 1.54-1.52 3.62-3.25 2.72-2.3 5.29-4.62 7.75-7.19 2.62-2.56 2.62-2.56 4.62-2.56v-2c1.36-1.41 1.36-1.41 3.31-3.06 0.736-0.625 1.47-1.25 2.23-1.89 0.811-0.674 1.62-1.35 2.46-2.04 0.821-0.684 1.64-1.37 2.49-2.07 6.84-5.64 13.8-11.1 20.8-16.6 1.63-1.27 3.26-2.54 4.88-3.82 47-36.5 99-65.6 154-88.5 1.09-0.455 2.17-0.909 3.29-1.38 32.2-13.3 65.8-22.9 99.7-30.6 1.06-0.246 1.06-0.246 2.15-0.497 39.7-9.15 80.4-14.5 121-14.7z"/>
<path transform="translate(415 697)" d="m0 0c2.67 2.31 5.22 4.68 7.55 7.33v2c0.917 0.396 0.917 0.396 1.85 0.801 5.71 3.19 8.08 11.1 10.5 16.9 0.267 0.642 0.533 1.28 0.808 1.94 1.41 3.58 2.2 6.51 1.88 10.4 1.92-0.157 1.92-0.157 4-1 1.58-2.03 1.58-2.03 2.88-4.56 6.64-11.7 15.9-21.8 27.1-29.4h2v-2c11.6-6.93 22.9-12.5 36-16 1.03-0.276 1.03-0.276 2.07-0.558 6.56-1.61 13.1-2.09 19.9-2.57 1.12-0.0864 2.23-0.173 3.38-0.262 15.8-1.17 30.9-0.444 46.2 3.76 0.725 0.197 1.45 0.394 2.2 0.596 4.42 1.28 8.39 2.99 12.5 5.12 2.04 1.05 4.11 1.89 6.27 2.66 1.15 0.413 2.31 0.825 3.5 1.25v2c0.856 0.231 1.71 0.461 2.59 0.699 3.85 1.47 6.74 3.56 9.91 6.11 0.543 0.426 1.09 0.852 1.64 1.29 1.63 1.29 3.24 2.59 4.86 3.9 1.02 0.803 2.04 1.61 3.09 2.43 3.04 2.69 5.5 5.57 7.91 8.82 0.429 0.57 0.857 1.14 1.3 1.73 1.24 1.67 2.48 3.34 3.7 5.02 0.629 0.859 1.26 1.72 1.91 2.6 3.07 4.38 4.98 8.15 6.09 13.4h3c0.0121-1.01 0.0121-1.01 0.0245-2.04 0.0858-6.98 0.185-13.9 0.293-20.9 0.0384-2.61 0.0732-5.21 0.104-7.82 0.0455-3.74 0.104-7.48 0.164-11.2 0.0116-1.17 0.0231-2.34 0.035-3.55 0.0199-1.08 0.0397-2.16 0.0602-3.28 0.0133-0.955 0.0266-1.91 0.0404-2.89 0.278-2.29 0.278-2.29 2.28-4.29 2.11-0.285 2.11-0.285 4.75-0.335 0.989-0.0231 1.98-0.0462 3-0.07 1.07-0.0147 2.15-0.0294 3.25-0.0445 1.66-0.0326 1.66-0.0326 3.35-0.0659 2.35-0.044 4.69-0.0832 7.04-0.118 3.57-0.0538 7.13-0.124 10.7-0.197 2.28-0.0407 4.57-0.0805 6.85-0.119 1.59-0.0311 1.59-0.0311 3.21-0.0629 6.31-0.0849 12.6-0.0542 18.9 1.01 2.12 2.12 1.42 6.62 1.56 9.56 0.0432 0.806 0.0864 1.61 0.131 2.44 0.106 2 0.207 4 0.307 5.99 3.66 0 4.05-0.677 6.62-3.12 7.02-6.35 14.8-11 23.4-14.9 0.807-0.373 1.61-0.745 2.45-1.13 19.7-8.18 46.3-6.29 65.9 1.44 9.98 4.5 17.8 10.1 25.7 17.7 0.701 0.65 1.4 1.3 2.12 1.97 8.93 8.51 16.5 19.2 20.9 30.8 0.744 2.4 0.744 2.4 2.96 3.24l1 1c-0.00444-0.66-0.00888-1.32-0.0135-2-0.0441-6.85-0.0744-13.7-0.0964-20.5-0.0101-2.56-0.0237-5.11-0.041-7.67-0.0242-3.67-0.0356-7.34-0.0444-11-0.0103-1.15-0.0206-2.3-0.0313-3.48-2.27e-4 -1.59-2.27e-4 -1.59-4.58e-4 -3.21-0.00444-0.937-0.00888-1.87-0.0135-2.84 0.241-2.25 0.241-2.25 2.24-4.25 2.59-0.247 2.59-0.247 5.9-0.243 1.86-0.00461 1.86-0.00461 3.75-0.00932 1.36 0.0069 2.71 0.0142 4.07 0.0218 1.38 0.00119 2.77 0.00164 4.15 0.00139 2.9 0.00157 5.81 0.00986 8.71 0.0233 3.73 0.017 7.46 0.0208 11.2 0.0201 2.86 2.71e-4 5.72 0.00575 8.58 0.013 1.38 0.00319 2.75 0.00516 4.13 0.00589 1.92 0.00216 3.84 0.0117 5.75 0.0216 1.64 0.00572 1.64 0.00572 3.31 0.0116 2.46 0.134 2.46 0.134 3.46 1.13 0.17 2.62 0.272 5.21 0.332 7.83 0.0331 1.26 0.0331 1.26 0.0668 2.55 0.0713 2.88 0.132 5.77 0.191 8.65 0.0217 1.02 0.0434 2.03 0.0657 3.08 0.616 30.1 0.245 60.1-0.0289 90.2-0.0733 8.06-0.138 16.1-0.203 24.2-0.133 16.5-0.275 33-0.424 49.5-4.89 0.14-9.78 0.279-14.7 0.417-1.66 0.0469-3.32 0.0941-4.98 0.142-36.8 1.05-36.8 1.05-45.3-1.56 0.00444-0.607 0.00888-1.21 0.0135-1.84 0.0442-6.31 0.0744-12.6 0.0964-18.9 0.0101-2.36 0.0237-4.71 0.041-7.07 0.0242-3.38 0.0356-6.77 0.0444-10.1 0.0103-1.06 0.0206-2.11 0.0313-3.2 1.51e-4 -0.981 3.02e-4 -1.96 4.58e-4 -2.97 0.00444-0.864 0.00888-1.73 0.0135-2.62-0.0987-2.51-0.0987-2.51-2.24-5.22-0.545 1.13-0.545 1.13-1.1 2.27-11.8 24-28 43.4-53.9 52.4-11.6 3.64-22.7 4.49-34.8 4.54-1.82 0.0309-1.82 0.0309-3.68 0.0625-7.41 0.032-13.5-0.829-20.4-3.31-1.64-0.449-3.29-0.887-4.94-1.31-8.94-2.7-16.6-7.81-24-13.4-2.1-1.59-2.1-1.59-5.09-1.32-0.33 36-0.66 71.9-1 109-15.8 0.0309-15.8 0.0309-31.9 0.0625-3.33 0.0091-6.66 0.0182-10.1 0.0276-2.62 0.00292-5.24 0.00547-7.87 0.00757-0.686 0.00261-1.37 0.00523-2.08 0.00792-2.01 0.00728-4.02 0.00776-6.03 0.00795-1.13 0.00222-2.27 0.00444-3.44 0.00673-2.55-0.12-2.55-0.12-3.55-1.12-0.0966-1.92-0.122-3.85-0.12-5.78-0.00206-1.88-0.00206-1.88-0.00417-3.8 0.00354-1.4 0.00717-2.81 0.0109-4.21 2.82e-4 -1.47 1.24e-4 -2.94-4.43e-4 -4.4-2.88e-4 -4 0.00561-8 0.0126-12 0.00623-4.17 0.00684-8.35 0.00803-12.5 0.00311-7.91 0.0113-15.8 0.0213-23.7 0.0112-9 0.0167-18 0.0217-27 0.0105-18.5 0.0281-37 0.0503-55.6-4.07 1.36-4.91 3.97-6.81 7.56-6.31 11.5-6.31 11.5-10.2 15.4h-2c-0.219 0.552-0.438 1.1-0.664 1.67-9.54 16.6-33.1 26.5-50.7 31.5-24 5.6-50.8 6.48-74.6-0.156-1.09-0.266-2.18-0.531-3.3-0.805-23.7-6.08-43.3-20.5-57.6-40.2-2.46-3.31-5.06-6.18-8.06-9 0.167 1.12 0.335 2.25 0.508 3.4 0.589 4.74 0.526 9.36 0.371 14.1-0.0236 0.877-0.0472 1.75-0.0715 2.66-0.0759 2.77-0.16 5.54-0.245 8.31-0.0533 1.89-0.106 3.78-0.158 5.67-0.128 4.61-0.264 9.22-0.404 13.8-14.3 0.63-28.5 1.11-42.8 1.18-2.01 0.0101-4.02 0.0296-6.03 0.0493-1.24 0.00129-2.47 0.00258-3.75 0.00391-1.09 0.00411-2.18 0.00822-3.3 0.0125-3.31-0.261-5.97-1.15-9.08-2.24-0.00239-0.563-0.00478-1.13-0.00724-1.71-0.0593-13.7-0.135-27.5-0.228-41.2-0.0447-6.64-0.0839-13.3-0.111-19.9-0.0261-6.41-0.0665-12.8-0.117-19.2-0.0166-2.44-0.0282-4.88-0.0344-7.33-0.00967-3.43-0.0378-6.86-0.07-10.3 0.00144-1 0.00287-2 0.00435-3.04-0.151-11.4-3.33-21-11.4-29.3-6.08-5.54-11.4-8.55-19.8-8.43-0.707 0.00902-1.41 0.018-2.14 0.0273-11.6 0.381-20.9 6.17-29 14.3-6.78 8.32-8.71 18-8.66 28.4-0.0155 1.61-0.0155 1.61-0.0313 3.26-0.0292 3.51-0.0309 7.02-0.0322 10.5-0.015 2.45-0.0317 4.9-0.0501 7.35-0.0435 6.42-0.0636 12.8-0.0787 19.3-0.0196 6.56-0.0616 13.1-0.102 19.7-0.0752 12.9-0.126 25.7-0.16 38.6-7.74 0.177-15.5 0.343-23.2 0.495-3.59 0.0707-7.19 0.145-10.8 0.229-3.47 0.0805-6.94 0.151-10.4 0.214-1.96 0.0384-3.93 0.0874-5.89 0.137-1.8 0.0303-1.8 0.0303-3.64 0.0611-1.05 0.0222-2.11 0.0444-3.2 0.0673-3.02-0.213-5.11-1.02-7.88-2.2-0.0467-24-0.082-47.9-0.104-71.9-0.0103-11.1-0.0244-22.2-0.0473-33.4-0.0199-9.69-0.0328-19.4-0.0373-29.1-0.00261-5.13-0.00878-10.3-0.0233-15.4-0.0135-4.83-0.0178-9.66-0.0148-14.5-5.52e-4 -1.78-0.00456-3.55-0.0122-5.33-0.00988-2.42-0.00758-4.83-0.0021-7.25-0.00583-0.71-0.0117-1.42-0.0177-2.15 0.0299-4.85 0.0299-4.85 2.26-7.07 2.59-0.247 2.59-0.247 5.9-0.243 1.86-0.00461 1.86-0.00461 3.75-0.00932 1.36 0.0069 2.71 0.0142 4.07 0.0218 1.38 0.00119 2.77 0.00164 4.15 0.00139 2.9 0.00157 5.81 0.00986 8.71 0.0233 3.73 0.017 7.46 0.0208 11.2 0.0201 2.86 2.71e-4 5.72 0.00575 8.58 0.013 1.38 0.00319 2.75 0.00516 4.13 0.00589 1.92 0.00216 3.84 0.0117 5.75 0.0216 1.64 0.00572 1.64 0.00572 3.31 0.0116 2.46 0.134 2.46 0.134 3.46 1.13 0.21 2.31 0.368 4.62 0.5 6.94 0.106 4.7 0.106 4.7 1.5 9.06 3.63-2.39 7.2-4.85 10.8-7.38 29.5-20.6 71.7-21.4 101 2.04z" fill="#D6D7D9"/>
<path transform="translate(953 557)" d="m0 0c1.19-0.0063 2.38-0.0126 3.61-0.0191 1.94 0.00607 1.94 0.00607 3.92 0.0123 1.34-0.00135 2.67-0.00329 4.01-0.0058 2.8-0.00295 5.6 0.00134 8.4 0.0107 3.59 0.0114 7.18 0.00484 10.8-0.00714 2.76-0.00723 5.52-0.00493 8.27 2.56e-4 1.97 0.00198 3.93-0.00409 5.9-0.0103 1.19 0.0063 2.39 0.0126 3.62 0.0191 1.58 0.00239 1.58 0.00239 3.19 0.00482 2.63 0.254 2.63 0.254 5.63 2.25 0.305 2.47 0.411 4.7 0.392 7.18 0.00594 0.748 0.0119 1.5 0.018 2.27 0.0164 2.52 0.0113 5.04 0.0065 7.56 0.00737 1.8 0.0161 3.6 0.026 5.4 0.0234 4.9 0.0285 9.81 0.0307 14.7 0.00565 5.12 0.0289 10.2 0.0506 15.4 0.0386 9.7 0.0628 19.4 0.0811 29.1 0.0334 17.4 0.091 34.8 0.154 52.2 0.0216 6.11 0.0368 12.2 0.0468 18.3 0.00699 3.79 0.0179 7.58 0.0296 11.4 0.00458 1.77 0.00741 3.53 0.00842 5.3 0.00156 2.4 0.00911 4.8 0.0182 7.2-0.00107 0.708-0.00214 1.42-0.00324 2.14-0.256 3.23-0.256 3.23 1.14 5.91 0.545-1.02 1.09-2.03 1.65-3.08 6.6-12.1 13.4-23.2 24.3-31.9 1.08-0.978 2.17-1.96 3.25-2.94 17.9-15.1 38.9-22.2 61.8-25.1 1.16-0.154 1.16-0.154 2.35-0.312 32.1-3.8 63 3.57 88.6 23.3 1.12 0.742 2.24 1.47 3.38 2.19 2.91 2.01 5.19 4.25 7.62 6.81 1.65 1.69 3.31 3.36 5 5h1c-0.0105-0.898-0.0209-1.8-0.0317-2.72-0.0341-3.33-0.0591-6.66-0.0781-9.99-0.0101-1.44-0.0237-2.88-0.041-4.32-0.0242-2.07-0.0356-4.14-0.0444-6.21-0.0105-1.25-0.0209-2.49-0.0317-3.78 0.227-2.98 0.227-2.98 2.23-4.98 2.52-0.227 2.52-0.227 5.66-0.195 1.12 0.00645 2.24 0.0129 3.4 0.0195 1.76 0.0251 1.76 0.0251 3.56 0.0508 1.18 0.00902 2.37 0.018 3.59 0.0273 2.93 0.0236 5.86 0.0566 8.79 0.0977-0.00222-0.847-0.00444-1.69-0.00673-2.57-0.02-7.98-0.0353-16-0.0451-23.9-0.00522-4.1-0.0123-8.2-0.0236-12.3-0.0108-3.96-0.0168-7.91-0.0194-11.9-0.00185-1.51-0.00547-3.02-0.0109-4.53-0.00723-2.11-0.00826-4.22-0.0078-6.34-0.00222-1.2-0.00444-2.41-0.00673-3.65 0.12-2.82 0.12-2.82 1.12-4.82 8.18-0.0463 16.4-0.0819 24.5-0.104 3.8-0.0104 7.6-0.0246 11.4-0.0473 3.66-0.0217 7.33-0.0337 11-0.0389 1.4-0.0037 2.8-0.0109 4.2-0.0217 1.96-0.0145 3.91-0.0154 5.87-0.0156 1.67-0.00666 1.67-0.00666 3.38-0.0135 2.63 0.241 2.63 0.241 4.63 2.24 0.241 2.75 0.241 2.75 0.227 6.29 2.92e-4 0.644 5.84e-4 1.29 8.85e-4 1.95-0.0014 2.13-0.017 4.26-0.0326 6.4-0.00373 1.48-0.00658 2.95-0.00858 4.43-0.00764 3.89-0.0273 7.78-0.0494 11.7-0.0204 3.97-0.0296 7.94-0.0397 11.9-0.0215 7.79-0.0556 15.6-0.0977 23.4 3.17 1.59 6.59 1.12 10.1 1.1 0.796-0.00141 1.59-0.00283 2.41-0.00429 2.55-0.00561 5.09-0.0182 7.64-0.0309 1.73-0.00501 3.45-0.00958 5.18-0.0137 4.23-0.011 8.47-0.0283 12.7-0.0488 1.21 2.42 1.12 3.93 1.11 6.63-7.55e-5 0.961-1.51e-4 1.92-2.29e-4 2.91-0.00516 1.04-0.0103 2.08-0.0156 3.15-0.00212 1.59-0.00212 1.59-0.00429 3.22-0.00561 3.4-0.0182 6.81-0.0309 10.2-0.00501 2.3-0.00958 4.61-0.0137 6.91-0.011 5.65-0.0278 11.3-0.0488 17-1.12 0.0251-2.23 0.0501-3.38 0.0759-4.12 0.0939-8.25 0.194-12.4 0.296-1.79 0.0434-3.58 0.0851-5.36 0.125-2.56 0.0576-5.13 0.121-7.69 0.186-1.21 0.0251-1.21 0.0251-2.44 0.0506-3.68-0.242-3.68-0.242-6.75 1.27-1.66 9.78-1.16 20-1.12 29.9 0.00188 0.864 0.00377 1.73 0.00571 2.62 0.0256 10 0.0526 20 0.432 30 0.0336 1.19 0.0336 1.19 0.0679 2.4 0.304 6.18 1.54 11.1 6.12 15.5 4.36 2.83 8.43 3.13 13.5 2.62 3.39-0.831 6.7-1.86 10-3 2.84 2.84 3.39 6.23 4.44 10 0.443 1.55 0.885 3.09 1.33 4.64 0.318 1.12 0.318 1.12 0.643 2.27 0.742 2.62 1.5 5.23 2.28 7.84 0.21 0.717 0.42 1.43 0.637 2.17 0.484 1.49 1.03 2.95 1.62 4.4 1.26 3.2 2.26 6.44 3.24 9.74 0.365 1.21 0.73 2.42 1.11 3.66 1.03 4.76 1.03 4.76-0.293 7.28-16.7 11.3-43.5 12.5-62.7 9.35-11.5-2.39-24.6-8-32.3-17.4v-3c-0.99-0.33-1.98-0.66-3-1-10.7-16.2-13.2-35.8-13-54.6 0.133-15.3-0.119-30.7-0.482-46-0.024-1.02-0.048-2.03-0.0728-3.08-0.137-5.76-0.28-11.5-0.427-17.3h-14c0.566 1.8 1.13 3.6 1.71 5.45 0.742 2.41 1.48 4.83 2.22 7.24 0.56 1.77 0.56 1.77 1.13 3.57 3.33 10.9 4.39 21.5 3.74 32.9-0.0448 0.796-0.0896 1.59-0.136 2.41-1.28 18.4-6.75 40.4-20.7 53.4-0.839 1.04-1.67 2.08-2.5 3.12-13.2 15.5-32.2 25.4-51.5 30.9-0.673 0.199-1.35 0.398-2.04 0.603-24.5 6.97-53.8 5.58-78-1.6-1.13-0.329-1.13-0.329-2.29-0.665-11-3.31-20.3-8.89-29.7-15.3-0.918-0.629-1.84-1.26-2.78-1.91-1.8-1.29-3.52-2.68-5.22-4.09v-2c-0.574-0.242-1.15-0.485-1.74-0.734-9.17-5.13-14.9-16.5-20.3-25.3-0.58-0.922-1.16-1.84-1.76-2.79-1.24-2.21-1.24-2.21-1.24-4.21h-2v56c-18.5 1.16-18.5 1.16-27.3 1.17-0.967 0.00333-1.93 0.00666-2.93 0.0101-2.01 0.00499-4.01 0.00741-6.02 0.00725-3.07 0.00222-6.15 0.0206-9.22 0.0393-1.96 0.00293-3.93 0.00492-5.89 0.00586-1.37 0.0108-1.37 0.0108-2.77 0.0218-0.849-0.00308-1.7-0.00615-2.57-0.00932-1.11 0.00214-1.11 0.00214-2.25 0.00432-2.38-0.283-3.97-1.14-6.08-2.25-0.0457-39.7-0.081-79.4-0.102-119-0.0025-4.68-0.00509-9.37-0.00773-14.1-5.25e-4 -0.933-0.00105-1.87-0.00159-2.83-0.00871-15.1-0.0245-30.2-0.0429-45.4-0.0187-15.5-0.0298-31-0.0339-46.5-0.00275-9.57-0.0114-19.1-0.0277-28.7-0.0105-6.56-0.0138-13.1-0.0112-19.7 0.00129-3.79-7.43e-4 -7.57-0.0114-11.4-0.0115-4.1-0.00759-8.2-0.0021-12.3-0.00583-1.21-0.0117-2.42-0.0177-3.66 0.00398-1.09 0.00796-2.18 0.0121-3.31-7.59e-4 -0.947-0.00152-1.89-0.0023-2.87 0.546-4.94 3.78-4.5 7.94-4.51z" fill="#D6D7D9"/>
<path transform="translate(953 557)" d="m0 0c1.19-0.0063 2.38-0.0126 3.61-0.0191 1.94 0.00607 1.94 0.00607 3.92 0.0123 1.34-0.00135 2.67-0.00329 4.01-0.0058 2.8-0.00295 5.6 0.00134 8.4 0.0107 3.59 0.0114 7.18 0.00484 10.8-0.00714 2.76-0.00723 5.52-0.00493 8.27 2.56e-4 1.97 0.00198 3.93-0.00409 5.9-0.0103 1.19 0.0063 2.39 0.0126 3.62 0.0191 1.58 0.00239 1.58 0.00239 3.19 0.00482 2.63 0.254 2.63 0.254 5.63 2.25 0.305 2.47 0.411 4.7 0.392 7.18 0.00594 0.748 0.0119 1.5 0.018 2.27 0.0164 2.52 0.0113 5.04 0.0065 7.56 0.00737 1.8 0.0161 3.6 0.026 5.4 0.0234 4.9 0.0285 9.81 0.0307 14.7 0.00565 5.12 0.0289 10.2 0.0506 15.4 0.0386 9.7 0.0628 19.4 0.0811 29.1 0.0334 17.4 0.091 34.8 0.154 52.2 0.0216 6.11 0.0368 12.2 0.0468 18.3 0.00699 3.79 0.0179 7.58 0.0296 11.4 0.00458 1.77 0.00741 3.53 0.00842 5.3 0.00156 2.4 0.00911 4.8 0.0182 7.2-0.00107 0.708-0.00214 1.42-0.00324 2.14-0.256 3.23-0.256 3.23 1.14 5.91 0.545-1.02 1.09-2.03 1.65-3.08 6.6-12.1 13.4-23.2 24.3-31.9 1.08-0.978 2.17-1.96 3.25-2.94 15-12.7 33.2-20.6 52.5-23.9 1.19-0.204 1.19-0.204 2.4-0.413 5.22-0.797 9.64-0.648 14.8 0.226-0.33 1.65-0.66 3.3-1 5 0.763 0.144 1.53 0.289 2.31 0.438 2.69 0.562 2.69 0.562 5.69 1.56-1.19 2.37-1.78 3.5-4 5-2.08-0.152-4.08-0.514-6.14-0.871-2-0.349-2-0.349-3.68 1.31-0.392 0.516-0.784 1.03-1.19 1.56h-3c-0.33 0.99-0.66 1.98-1 3l-2-1v2h-5c0.33 2.64 0.66 5.28 1 8-0.619 0.0825-1.24 0.165-1.88 0.25-2.31 0.563-2.31 0.563-3.38 2.81-0.371 0.959-0.371 0.959-0.75 1.94h-7c-0.186 1.14-0.186 1.14-0.375 2.31-0.625 2.69-0.625 2.69-2.62 5.69-0.33-1.32-0.66-2.64-1-4-0.33 0.99-0.66 1.98-1 3l-2 1c0.99 0.66 1.98 1.32 3 2h-3c0.33 1.65 0.66 3.3 1 5h7v-2h6v2h15c0.33 0.99 0.66 1.98 1 3-0.33 0.66-0.66 1.32-1 2h2v2h13v1c-0.874 0.13-0.874 0.13-1.77 0.262-11.9 2.04-22.4 6.23-30.2 15.7-8.36 13-9.71 26.8-8 42 2.03 8.24 6.82 15.4 14 20 0.752 0.519 1.5 1.04 2.28 1.57 11.3 7.34 23.1 9.07 36.3 6.8 10.5-2.59 20-7.85 26.1-17.1 4.79-8.32 5.94-16.5 6.07-26 0.0296-1.1 0.0593-2.19 0.0898-3.32 0.0698-2.66 0.123-5.33 0.16-7.99l2-1c0.11 0.736 0.219 1.47 0.332 2.23 1.05 7.4 1.05 7.4 4.67 13.8 2.36 1.68 2.36 1.68 5 3 0.887 0.557 1.77 1.11 2.69 1.69 2.16 1.48 2.16 1.48 4.31 1.31 0.33 1.65 0.66 3.3 1 5h2v7c-0.33-0.66-0.66-1.32-1-2l-2 1c0.33 2.97 0.66 5.94 1 9l2-1c-0.33 1.32-0.66 2.64-1 4-2.31 0.33-4.62 0.66-7 1-0.144 1.26-0.289 2.52-0.438 3.81-0.3 2.61-0.721 4.66-1.56 7.19h-2c0.33 2.31 0.66 4.62 1 7h2c0.33 0.99 0.66 1.98 1 3 2.53 0 4.98-0.0982 7.5-0.312 0.773-0.058 1.55-0.116 2.34-0.176 2.57-0.611 3.35-1.65 5.16-3.51 3.19-0.188 3.19-0.188 6 0v-2c-0.66-0.33-1.32-0.66-2-1 4.36-2.62 8.93-3.31 13.9-2.56 0.681 0.186 1.36 0.371 2.06 0.562 0.937 3.61 1.21 5.49-0.215 8.99-0.568 0.951-1.14 1.9-1.72 2.88-0.566 0.967-1.13 1.93-1.71 2.93-0.445 0.724-0.889 1.45-1.35 2.2h-3c-1.15 1.93-1.15 1.93-1 4-2.24 9.17-10.8 13.8-18.4 18.6-8.39 4.67-17.4 7.64-26.6 10.4-1.13 0.343-1.13 0.343-2.28 0.693-24.3 7.03-53.7 5.42-77.7-1.69-1.13-0.329-1.13-0.329-2.29-0.665-11-3.31-20.3-8.89-29.7-15.3-0.918-0.629-1.84-1.26-2.78-1.91-1.8-1.29-3.52-2.68-5.22-4.09v-2c-0.574-0.242-1.15-0.485-1.74-0.734-9.17-5.13-14.9-16.5-20.3-25.3-0.58-0.922-1.16-1.84-1.76-2.79-1.24-2.21-1.24-2.21-1.24-4.21h-2v56c-18.5 1.16-18.5 1.16-27.3 1.17-0.967 0.00333-1.93 0.00666-2.93 0.0101-2.01 0.00499-4.01 0.00741-6.02 0.00725-3.07 0.00222-6.15 0.0206-9.22 0.0393-1.96 0.00293-3.93 0.00492-5.89 0.00586-1.37 0.0108-1.37 0.0108-2.77 0.0218-0.849-0.00308-1.7-0.00615-2.57-0.00932-1.11 0.00214-1.11 0.00214-2.25 0.00432-2.38-0.283-3.97-1.14-6.08-2.25-0.0457-39.7-0.081-79.4-0.102-119-0.0025-4.68-0.00509-9.37-0.00773-14.1-5.25e-4 -0.933-0.00105-1.87-0.00159-2.83-0.00871-15.1-0.0245-30.2-0.0429-45.4-0.0187-15.5-0.0298-31-0.0339-46.5-0.00275-9.57-0.0114-19.1-0.0277-28.7-0.0105-6.56-0.0138-13.1-0.0112-19.7 0.00129-3.79-7.43e-4 -7.57-0.0114-11.4-0.0115-4.1-0.00759-8.2-0.0021-12.3-0.00583-1.21-0.0117-2.42-0.0177-3.66 0.00398-1.09 0.00796-2.18 0.0121-3.31-7.59e-4 -0.947-0.00152-1.89-0.0023-2.87 0.546-4.94 3.78-4.5 7.94-4.51z" fill="#D6D7D9"/>
<path transform="translate(772 131)" d="m0 0c0.742-0.00486 1.48-0.00973 2.25-0.0147 5.61-0.0363 11.2-0.0527 16.8-0.0595 0.826-0.00115 1.65-0.0023 2.5-0.00349 25.8-0.0249 51.2 0.52 76.8 4 2.41 0.327 4.82 0.641 7.24 0.953 24.6 3.23 48.9 8.18 73 13.9 1.86 0.438 3.72 0.871 5.58 1.3 16.7 3.91 32.8 9.42 49 15 2.81 0.966 5.63 1.92 8.45 2.88 4.06 1.38 8.08 2.84 12.1 4.34 0.981 0.365 1.96 0.73 2.97 1.11 16.8 6.32 33.1 13.4 49.2 21.5 2.44 1.21 4.88 2.41 7.33 3.6 16.5 8.04 32.4 17 48.1 26.5 0.577 0.348 1.15 0.695 1.75 1.05 8.47 5.12 16.6 10.6 24.7 16.3 1.74 1.21 3.48 2.42 5.22 3.62 9.05 6.3 18 12.6 26.8 19.4 0.782 0.603 0.782 0.603 1.58 1.22 17.7 13.7 34.9 27.9 50.5 43.9 1.79 1.92 1.79 1.92 3.93 2.86v2c0.54 0.214 1.08 0.428 1.64 0.648 3.21 1.84 5.61 4.35 8.18 6.98 0.743 0.744 0.743 0.744 1.5 1.5 3.43 3.47 6.65 7.1 9.84 10.8 3.82 4.32 7.85 8.46 11.9 12.6 0.645 0.679 1.29 1.36 1.96 2.06 0.876 0.913 0.876 0.913 1.77 1.85 1.27 1.57 1.27 1.57 1.27 3.57h2c1.37 1.51 2.67 3.09 3.94 4.69 3 3.76 6.03 7.48 9.17 11.1 5.6 6.52 10.8 13.2 15.9 20.2 0.731 1 0.731 1 1.48 2.02 16.8 23.1 32.2 46.6 46.1 71.5 1.68 2.99 3.43 5.94 5.19 8.89 22.5 38.5 38.5 82 51.2 125 0.311 1.04 0.623 2.08 0.944 3.15 7.53 25.5 13.1 51.4 17.6 77.6 0.16 0.914 0.32 1.83 0.485 2.77 0.954 5.87 1.19 11.5 1.01 17.5h-1c-0.141-0.842-0.282-1.68-0.427-2.55-0.53-3.15-1.06-6.3-1.6-9.45-0.23-1.36-0.459-2.72-0.687-4.08-0.329-1.96-0.663-3.93-0.998-5.89-0.199-1.18-0.398-2.36-0.603-3.57-0.706-3.56-1.67-6.98-2.69-10.5-0.42-2.35-0.796-4.7-1.12-7.06-0.168-1.17-0.335-2.33-0.508-3.54-0.342-3.17-0.435-6.22-0.367-9.4h-2c-0.144-0.598-0.289-1.2-0.438-1.81-0.791-3.08-1.28-4.9-3.56-7.19-0.273-1.88-0.273-1.88-0.375-4-0.157-2.12-0.157-2.12-0.625-4-1.92-1.59-1.92-1.59-4-2v-3c-0.309-1.34-0.644-2.67-1-4-0.268-1.28-0.536-2.56-0.812-3.88-0.726-2.97-1.35-4.36-3.19-6.94-2.45-3.91-2.86-7.27-3.41-11.8-0.392-2.75-0.392-2.75-3.59-4.39-1.06-2.64-1.06-2.64-2-5.81-0.968-3.25-1.84-5.93-3.62-8.82-1.38-2.36-1.38-2.36-1.38-6.36h-2c-0.193-0.638-0.387-1.28-0.586-1.93-0.26-0.826-0.521-1.65-0.789-2.5-0.255-0.824-0.51-1.65-0.773-2.5-0.66-2.24-0.66-2.24-2.85-3.07-1.08-2.66-2.07-5.29-3-8-0.371-1.07-0.743-2.14-1.12-3.25-0.875-2.75-0.875-2.75-1.38-5.06l-0.5-1.69c-0.66-0.33-1.32-0.66-2-1-0.676-2-0.676-2-1.31-4.56-1.68-5.97-4.28-11-8.69-15.4v-3h-2c-0.103-0.743-0.206-1.48-0.312-2.25-0.499-2.79-0.499-2.79-2.25-4.75-1.79-2.49-1.69-4-1.44-7-0.99-0.33-1.98-0.66-3-1-0.992-2.04-0.992-2.04-1.88-4.62-1.25-3.37-2.49-6.15-4.69-9-3.1-4.03-4.93-8.55-5.83-13.6-0.201-0.602-0.402-1.2-0.609-1.82-0.99-0.33-1.98-0.66-3-1-0.33-1.65-0.66-3.3-1-5-0.99-0.33-1.98-0.66-3-1-1.06-1.63-2.05-3.3-3-5-1.8-2.58-3.64-5.14-5.48-7.7-1.52-2.3-1.52-2.3-2.52-5.3-0.66-0.33-1.32-0.66-2-1-2-4.25-3.58-8.52-5-13h-3l-1.31-3.31c-1.2-2.85-2.45-4.55-4.69-6.69v-3h-2c-2-3-2-3-2-6h-2c-0.289-0.639-0.578-1.28-0.875-1.94-0.953-2.21-0.953-2.21-3.12-3.06-0.667-1.67-1.33-3.33-2-5-0.66-0.33-1.32-0.66-2-1v-4h-2c-1.63-2.5-3.03-5.1-4.46-7.71-1.39-2.58-1.39-2.58-4.54-3.29-0.754-1.7-1.5-3.41-2.17-5.15-1.18-2.63-3-4.64-4.83-6.85v-2c-1.32-0.33-2.64-0.66-4-1v-4h-4c-0.0967-0.599-0.193-1.2-0.293-1.82-0.856-2.64-1.84-3.44-4.02-5.12-3.01-2.43-5.32-4.99-7.69-8.06-0.66-0.33-1.32-0.66-2-1v-3h-2c-1.51-1.46-1.51-1.46-3.12-3.38-0.539-0.626-1.08-1.25-1.63-1.9-1.24-1.73-1.24-1.73-1.24-3.73-0.619-0.268-1.24-0.536-1.88-0.812-2.12-1.19-2.12-1.19-4.12-4.19-2.05-1.19-2.05-1.19-4-2v-3c-0.959-0.155-0.959-0.155-1.94-0.312-1.02-0.34-1.02-0.34-2.06-0.688-0.33-0.99-0.66-1.98-1-3-1.66-1.64-1.66-1.64-3.69-3.25-3.82-3.24-7.44-6.62-10.3-10.8v-2c-1.65-0.33-3.3-0.66-5-1-0.33-0.99-0.66-1.98-1-3-1.66-1.01-3.33-2.01-5-3-3-3.41-3-3.41-3-6-2.33-1.21-4.5-2.17-7-3-0.33-0.99-0.66-1.98-1-3-0.66-0.309-1.32-0.619-2-0.938-0.66-0.351-1.32-0.701-2-1.06-0.144-0.66-0.289-1.32-0.438-2-0.186-0.66-0.371-1.32-0.562-2-2.49-1.3-2.49-1.3-5-2v-2c-0.743-0.248-1.48-0.495-2.25-0.75-3.05-1.38-4.43-2.86-6.75-5.25-1.32-1.02-2.66-2.02-4-3-2.93-2.15-5.43-4.43-8-7-1.33-0.683-2.66-1.35-4-2-1.02-0.976-2.02-1.98-3-3-3.59-3.2-6.56-5.25-11-7-1.37-1.29-2.71-2.62-4-4l-3-2v-2c-1.98-0.66-3.96-1.32-6-2v-2c-0.887-0.248-1.77-0.495-2.69-0.75-3.48-1.31-5.5-2.86-8.31-5.25-3-2.11-5.89-3.95-9.19-5.56-2.81-1.44-2.81-1.44-4.07-2.8-2.49-2.35-5.42-3.77-8.43-5.33-0.665-0.35-1.33-0.699-2.02-1.06-5.26-2.75-10.6-5.4-15.9-8.04-5.77-2.86-11.5-5.84-17.2-8.84-3.42-1.79-6.83-3.58-10.2-5.38-0.625-0.328-1.25-0.656-1.89-0.994-7.5-3.92-15.2-7.11-23.1-10v-2c-1.18-0.206-2.35-0.412-3.56-0.625-5-1.11-9.56-2.96-14.3-4.92-5.83-2.39-11.8-4.39-17.7-6.35-4.03-1.31-8.01-2.68-12-4.18-5.36-1.99-10.8-3.57-16.3-5.15-3.64-1.05-7.24-2.14-10.8-3.41-4.91-1.7-9.99-2.63-15.1-3.63-2.95-0.68-5.44-1.62-8.23-2.75-3.07-0.903-6.16-1.7-9.25-2.5-0.808-0.213-1.62-0.425-2.45-0.645-15.7-4.08-31.4-6.31-47.5-8.03-8.44-0.909-16.5-2.12-24.8-4.16-4.98-1.09-9.97-1.45-15-1.79-1.98-0.146-3.96-0.294-5.94-0.445-0.855-0.0595-1.71-0.119-2.59-0.18-2.47-0.25-2.47-0.25-4.76-0.742-3.73-0.697-7.47-0.873-11.3-1.06-0.832-0.0418-1.66-0.0837-2.52-0.127-8.58-0.4-17.2-0.509-25.8-0.508-2.59-0.00221-5.17-0.0206-7.76-0.0393-8.28-0.0278-16.2 0.256-24.3 1.72-5.74 0.937-11.5 1.21-17.3 1.57-12.6-0.332-12.6-0.332-23.8 2.94-2 0.205-4.01 0.348-6.01 0.465-1.23 0.078-2.47 0.156-3.74 0.236-2.61 0.156-5.21 0.31-7.82 0.461-1.24 0.0793-2.48 0.159-3.76 0.24-1.14 0.067-2.27 0.134-3.44 0.203-3.32 0.405-6.08 1.31-9.24 2.39-1.99 0.339-4 0.624-6.01 0.859-1.14 0.143-2.28 0.286-3.46 0.434-1.21 0.151-2.41 0.301-3.66 0.457-9.73 1.29-18.9 3.11-28.2 6.18-4.74 1.55-9.21 2.57-14.2 3.14-5.64 0.649-9.95 2.29-15.1 4.64-5.08 1.92-10.3 2.85-15.7 3.77-3.88 0.712-7.05 1.5-10.4 3.55-3.35 1.98-5.84 2.72-9.63 3.41-5.18 1.09-9.27 2.66-13.9 5.18-3.51 1.74-7.11 3.06-10.8 4.39-5.52 2-10.7 4.23-15.9 6.97-2.6 1.3-5.31 2.11-8.06 3.03-0.33 0.66-0.66 1.32-1 2-1.86 0.641-1.86 0.641-4.31 1.25-5.3 1.49-9.94 3.74-14.8 6.28-2.45 1.25-4.9 2.35-7.44 3.41-4.64 1.99-8.7 4.73-12.9 7.57-2.6 1.5-4.63 2.09-7.58 2.49v2c-1.86 1.31-3.8 2.52-5.75 3.69-0.587 0.354-1.17 0.708-1.78 1.07-3.86 2.32-7.76 4.56-11.7 6.8-3.83 2.21-7.47 4.55-11.1 7.12-3.54 2.54-7.06 4.61-11 6.48-4.66 2.07-4.66 2.07-7.76 5.84-1.66 1.01-3.33 2.01-5 3-2.53 1.96-4.99 3.99-7.44 6.06-2.73 2.07-5.49 3.43-8.56 4.94-3.88 2.38-3.88 2.38-7.3 5.34-2.37 2.32-5 4.28-7.63 6.29-0.578 0.445-1.16 0.891-1.75 1.35-2.71 2.08-5.44 4.12-8.24 6.08-9.03 6.41-16.6 14.1-24.2 22.1-0.903 0.927-0.903 0.927-1.82 1.87-0.695 0.738-1.39 1.48-2.11 2.24-1.89 1.76-1.89 1.76-3.89 1.76-0.268 0.639-0.536 1.28-0.812 1.94-1.19 2.06-1.19 2.06-4.19 3.06-1.71 1.62-3.37 3.3-5 5-2.51 2.51-5.02 5.02-7.56 7.5-2.45 2.43-2.45 2.43-4.44 5-2.16 2.7-4.55 5.05-7 7.5-0.701 0.887-1.4 1.77-2.12 2.69-1.88 2.31-1.88 2.31-4.88 4.31-0.33 0.99-0.66 1.98-1 3-1.72 1.59-3.55 2.98-5.41 4.4-1.87 1.87-1.98 3.08-2.59 5.6-1.42 1.42-1.42 1.42-3.19 2.75-2.78 2.24-4.82 4.45-6.88 7.38-2.56 3.59-5.23 5.45-8.94 7.88-5.59 5.27-9.55 11.7-13.6 18.2-2.45 3.9-5.01 7.72-7.59 11.5-3.24 4.83-6.34 9.7-9.29 14.7-1.76 2.93-3.6 5.79-5.46 8.66-9.14 14.1-18.3 28.3-26.4 43.1-1.61 2.8-1.61 2.8-3.59 5.71-2.21 3.37-4.02 6.85-5.78 10.5-0.7 1.42-1.4 2.84-2.1 4.27l-1.08 2.19c-1.04 2.1-2.1 4.19-3.16 6.28-4.33 8.51-8.23 17.1-11.9 25.9-1.32 3.01-2.66 6-4 9h-2c-0.66 3.3-1.32 6.6-2 10h-2c-0.0928 0.695-0.186 1.39-0.281 2.11-0.868 3.5-2.4 6.1-4.22 9.21-2.88 5.16-4.16 8.85-4.5 14.7-0.66 0.33-1.32 0.66-2 1-0.689 2.35-0.689 2.35-1.12 5.06-0.168 0.919-0.335 1.84-0.508 2.79-0.121 0.71-0.242 1.42-0.367 2.15h-3v3h-2c-0.103 0.701-0.206 1.4-0.312 2.12-0.688 2.88-0.688 2.88-2.12 5.62-1.67 3.47-2.42 6.64-3.13 10.4-0.43 1.86-0.43 1.86-1.43 2.86-0.108 1.6-0.186 3.21-0.25 4.81-0.452 5.54-2.01 9.94-4.3 15-3.76 8.34-6.38 16.4-8.2 25.3-0.331 1.58-0.331 1.58-0.668 3.19-0.535 2.56-1.06 5.12-1.58 7.69h-1c0.44-9.3 1.87-18 4.06-27.1 0.154-0.645 0.309-1.29 0.468-1.95 12-49.9 28.6-100 53.2-146 1.8-3.33 3.5-6.69 5.14-10.1 15.4-31.7 35.6-62.4 57.2-90.2 0.565-0.733 1.13-1.47 1.71-2.22 1.75-2.27 3.52-4.52 5.29-6.78 0.819-1.06 1.64-2.12 2.46-3.18 10.2-13.2 21.1-25.7 32.5-37.8l1.92-2.06c19.8-21.2 19.8-21.2 24.1-24.9h2v-2c1.54-1.52 1.54-1.52 3.62-3.25 2.72-2.3 5.29-4.62 7.75-7.19 2.62-2.56 2.62-2.56 4.62-2.56v-2c1.36-1.41 1.36-1.41 3.31-3.06 0.736-0.625 1.47-1.25 2.23-1.89 0.811-0.674 1.62-1.35 2.46-2.04 0.821-0.684 1.64-1.37 2.49-2.07 6.84-5.64 13.8-11.1 20.8-16.6 1.63-1.27 3.26-2.54 4.88-3.82 47-36.5 99-65.6 154-88.5 1.09-0.455 2.17-0.909 3.29-1.38 32.2-13.3 65.8-22.9 99.7-30.6 0.71-0.164 1.42-0.328 2.15-0.497 39.7-9.15 80.4-14.5 121-14.7z" fill="#040507"/>
<path transform="translate(396,686)" d="m0 0c0.99 0.33 1.98 0.66 3 1 0.33 0.99 0.66 1.98 1 3-1.79-0.247-1.79-0.247-3.62-0.5-3.48-0.44-6.86-0.588-10.4-0.5v3h-5v-6c-2.64 0.66-5.28 1.32-8 2 0.33 1.32 0.66 2.64 1 4-3.75 1.12-3.75 1.12-6 0-1.88 0.0874-3.75 0.242-5.62 0.438-1 0.102-2.01 0.204-3.04 0.309-0.771 0.0838-1.54 0.168-2.34 0.254v9h3c0.495 4.46 0.495 4.46 1 9l-2 1c-0.33-0.66-0.66-1.32-1-2 0.0412 1.28 0.0825 2.56 0.125 3.88 0.0703 2.18 0.0703 2.18-0.125 4.12l-2 2c-0.167 3.08-0.167 3.08 0 6 0.66-0.99 1.32-1.98 2-3v6h-3c0.99 1.65 1.98 3.3 3 5-5.75-1.88-5.75-1.88-8-3-15.2-1.08-25.2 1.9-37 12-8.23 8.34-10.6 19-10.5 30.3-0.0155 1.61-0.0155 1.61-0.0313 3.26-0.0292 3.51-0.0309 7.02-0.0322 10.5-0.015 2.45-0.0317 4.9-0.0501 7.35-0.0435 6.42-0.0636 12.8-0.0787 19.3-0.0196 6.56-0.0616 13.1-0.102 19.7-0.0752 12.9-0.126 25.7-0.16 38.6-7.74 0.177-15.5 0.343-23.2 0.495-3.59 0.0707-7.19 0.145-10.8 0.229-3.47 0.0805-6.94 0.151-10.4 0.214-1.96 0.0384-3.93 0.0874-5.89 0.137-1.8 0.0303-1.8 0.0303-3.64 0.0611-1.05 0.0222-2.11 0.0444-3.2 0.0673-3.02-0.213-5.11-1.02-7.88-2.2-0.0467-24-0.082-47.9-0.104-71.9-0.0103-11.1-0.0244-22.2-0.0473-33.4-0.0199-9.69-0.0328-19.4-0.0373-29.1-0.00261-5.13-0.00878-10.3-0.0233-15.4-0.0135-4.83-0.0178-9.66-0.0148-14.5-5.52e-4 -1.78-0.00456-3.55-0.0122-5.33-0.00988-2.42-0.00758-4.83-0.0021-7.25-0.00583-0.71-0.0117-1.42-0.0177-2.15 0.0299-4.85 0.0299-4.85 2.26-7.07 2.59-0.247 2.59-0.247 5.9-0.243 1.86-0.00461 1.86-0.00461 3.75-0.00932 1.36 0.0069 2.71 0.0142 4.07 0.0218 1.38 0.00119 2.77 0.00164 4.15 0.00139 2.9 0.00157 5.81 0.00986 8.71 0.0233 3.73 0.017 7.46 0.0208 11.2 0.0201 2.86 2.71e-4 5.72 0.00575 8.58 0.013 1.38 0.00319 2.75 0.00516 4.13 0.00589 1.92 0.00216 3.84 0.0117 5.75 0.0216 1.64 0.00572 1.64 0.00572 3.31 0.0116 2.46 0.134 2.46 0.134 3.46 1.13 0.21 2.31 0.368 4.62 0.5 6.94 0.106 4.7 0.106 4.7 1.5 9.06 3.63-2.39 7.2-4.85 10.8-7.38 25.8-18 52.1-18.9 81.2-8.62z" fill="#D6D7D9"/>
<path transform="translate(396,686)" d="m0 0c0.99 0.33 1.98 0.66 3 1 0.33 0.99 0.66 1.98 1 3-1.79-0.247-1.79-0.247-3.62-0.5-3.48-0.44-6.86-0.588-10.4-0.5v3h-5v-6c-2.64 0.66-5.28 1.32-8 2 0.33 1.32 0.66 2.64 1 4-3.75 1.12-3.75 1.12-6 0-1.88 0.0874-3.75 0.242-5.62 0.438-1 0.102-2.01 0.204-3.04 0.309-0.771 0.0838-1.54 0.168-2.34 0.254v9h3c0.495 4.46 0.495 4.46 1 9l-2 1c-0.33-0.66-0.66-1.32-1-2 0.0412 1.28 0.0825 2.56 0.125 3.88 0.0703 2.18 0.0703 2.18-0.125 4.12l-2 2c-0.167 3.08-0.167 3.08 0 6 0.66-0.99 1.32-1.98 2-3v6h-3c0.99 1.65 1.98 3.3 3 5-5.75-1.88-5.75-1.88-8-3-13.7-0.978-23.2 0.977-34 10-0.66-0.33-1.32-0.66-2-1 0.206-0.598 0.413-1.2 0.625-1.81 0.682-2.47 0.682-2.47-1.62-5.19h-4c0.107-0.759 0.214-1.52 0.324-2.3 0.12-0.994 0.24-1.99 0.363-3.01 0.128-0.986 0.255-1.97 0.387-2.99 0.187-2.71 0.187-2.71-1.43-4.49-1.64-1.28-1.64-1.28-3.64-2.21v-2c-1.49 0.495-1.49 0.495-3 1-2.12-0.438-2.12-0.438-4-2-1.36-5.72-0.943-9.51 1-15-0.664 0.0232-1.33 0.0464-2.01 0.0703-4.85 0.0992-8.55 0.0861-13-2.07-1.66-0.369-3.32-0.713-5-1v-1h7v-2c-1.46 0.141-2.92 0.288-4.38 0.438-0.812 0.0812-1.62 0.162-2.46 0.246-2.21 0.207-2.21 0.207-4.16 1.32 0.66 0.66 1.32 1.32 2 2-3.01 3.01-11.6 1.99-15.6 2.06-3.13 0-6.25-0.0178-9.38-0.0625-0.433 1.33-0.433 1.33-0.875 2.69-1.12 3.31-1.12 3.31-2.17 5.5-1.26 3.72-1.31 7.3-1.37 11.2-0.0194 0.792-0.0387 1.58-0.0587 2.4-0.0595 2.52-0.106 5.03-0.152 7.55-0.0382 1.71-0.0773 3.42-0.117 5.13-0.0958 4.18-0.18 8.37-0.258 12.6 2.48-0.495 2.48-0.495 5-1 0.124 0.928 0.248 1.86 0.375 2.81 0.44 3.33 0.44 3.33 2.62 6.19 0.195 2.48 0.195 2.48 0.125 5.19-0.0271 1.35-0.0271 1.35-0.0547 2.73-0.0232 0.687-0.0464 1.37-0.0703 2.08 0.804-0.309 1.61-0.619 2.44-0.938 4.18-1.25 8.23-1.7 12.6-2.06 0.049 0.615 0.098 1.23 0.148 1.86 0.0748 0.808 0.15 1.62 0.227 2.45 0.104 1.2 0.104 1.2 0.211 2.43 0.31 2.53 0.31 2.53 2.41 5.26 0.414 2.26 0.414 2.26 0.625 4.69 0.0748 0.808 0.15 1.62 0.227 2.45 0.049 0.615 0.098 1.23 0.148 1.86 0.763-0.0619 1.53-0.124 2.31-0.188 2.69 0.188 2.69 0.188 4.38 1.31 4.2 6 5.83 15.7 5.31 22.9-0.33 0.99-0.66 1.98-1 3-4 0-4 0-6.25-1.88-1.75-2.12-1.75-2.12-1.75-4.12-2.97-0.495-2.97-0.495-6-1-0.206 0.639-0.413 1.28-0.625 1.94-1.38 2.06-1.38 2.06-4.25 3.06-3.12 0-3.12 0-5.38-1.69-1.56-2.06-2.74-3.95-3.75-6.31h-3c-0.543 3.39-1.02 6.56-0.875 10-0.164 3.93-1.43 6.47-3.12 10-0.66-0.66-1.32-1.32-2-2-2.75 3.94-2.04 8.08-1.69 12.6 0.052 0.809 0.104 1.62 0.157 2.45 0.279 4.16 0.675 8.29 1.22 12.4 0.58 5.04-0.431 9.62-1.69 14.5-0.99 0.33-1.98 0.66-3 1-0.33 0.99-0.66 1.98-1 3h-2c0.33 2.64 0.66 5.28 1 8-1.32-0.33-2.64-0.66-4-1-0.0467-24-0.082-47.9-0.104-71.9-0.0103-11.1-0.0244-22.2-0.0473-33.4-0.0199-9.69-0.0328-19.4-0.0373-29.1-0.00261-5.13-0.00878-10.3-0.0233-15.4-0.0135-4.83-0.0178-9.66-0.0148-14.5-5.52e-4 -1.78-0.00456-3.55-0.0122-5.33-0.00988-2.42-0.00758-4.83-0.0021-7.25-0.00583-0.71-0.0117-1.42-0.0177-2.15 0.0299-4.85 0.0299-4.85 2.26-7.07 2.59-0.247 2.59-0.247 5.9-0.243 1.86-0.00461 1.86-0.00461 3.75-0.00932 1.36 0.0069 2.71 0.0142 4.07 0.0218 1.38 0.00119 2.77 0.00164 4.15 0.00139 2.9 0.00157 5.81 0.00986 8.71 0.0233 3.73 0.017 7.46 0.0208 11.2 0.0201 2.86 2.71e-4 5.72 0.00575 8.58 0.013 1.38 0.00319 2.75 0.00516 4.13 0.00589 1.92 0.00216 3.84 0.0117 5.75 0.0216 1.64 0.00572 1.64 0.00572 3.31 0.0116 2.46 0.134 2.46 0.134 3.46 1.13 0.21 2.31 0.368 4.62 0.5 6.94 0.106 4.7 0.106 4.7 1.5 9.06 3.63-2.39 7.2-4.85 10.8-7.38 25.8-18 52.1-18.9 81.2-8.62z" fill="#DFE0E2"/>
<path transform="translate(586,763)" d="m0 0c3.78 3.66 6.15 6.22 6.56 11.6 0.252 3.34 0.252 3.34 1.44 6.44 0.969 0.289 1.94 0.577 2.94 0.875 3.06 1.12 3.06 1.12 4.38 3.06l1.69 5.06c1.65-0.33 3.3-0.66 5-1v2c1.65-0.33 3.3-0.66 5-1 0.495 3.47 0.495 3.47 1 7-4.75 1.12-4.75 1.12-7 0 0.0619 0.908 0.124 1.82 0.188 2.75-0.217 3.77-0.952 4.35-3.19 7.25-0.845 2.27-1.56 4.56-2.25 6.88-0.746 2.12-0.746 2.12-2.75 5.12v3c-0.763 0.536-1.53 1.07-2.31 1.62-3.28 2.89-3.94 5.24-5.11 9.35-0.578 2.02-0.578 2.02-1.58 4.02h-2c0.495 3.96 0.495 3.96 1 8 4.05 1.16 6.22 0.837 10-1v-2c2.41-1.2 3.95-1.1 6.62-1.06 0.817 0.00902 1.63 0.018 2.48 0.0273 0.626 0.0116 1.25 0.0232 1.9 0.0352 0.049-0.675 0.098-1.35 0.148-2.05 0.0748-0.892 0.15-1.78 0.227-2.7 0.0696-0.882 0.139-1.76 0.211-2.67 0.422-2.62 0.932-4.37 2.41-6.58 3.12-0.75 3.12-0.75 6-1-0.0412-0.763-0.0825-1.53-0.125-2.31 0.125-2.69 0.125-2.69 2.12-5.69 3.62-0.188 3.62-0.188 7 0 0.33-0.99 0.66-1.98 1-3h4l2-6c3.01-0.58 5.93-1.06 9-1 1.94 1.94 1.94 1.94 3 4h2c0.99-1.98 1.98-3.96 3-6 0.66 0.33 1.32 0.66 2 1-0.718 9.09-6.43 16.9-11.1 24.5-0.423 0.707-0.847 1.41-1.28 2.14-0.413 0.665-0.826 1.33-1.25 2.01-0.366 0.596-0.732 1.19-1.11 1.81-1.55 1.85-3.13 2.51-5.29 3.54-0.676 1.33-1.34 2.66-2 4-20.4 21.4-48.1 31.9-77.3 33.1-29.4 0.672-29.4 0.672-43.5-3.2-0.709-0.186-1.42-0.373-2.15-0.564-1.7-0.449-3.4-0.91-5.1-1.37v-1c6 0.667 12 1.33 18 2v-4c1.67-0.0427 3.33-0.0406 5 0 0.495 0.495 0.495 0.495 1 1 2.05-0.409 2.05-0.409 4-1 0.33-2.31 0.66-4.62 1-7-1.32-0.33-2.64-0.66-4-1v-2c-0.619-0.144-1.24-0.289-1.88-0.438-2.12-0.562-2.12-0.562-4.12-1.56-0.722-1.64-1.39-3.31-2-5h-3-3v-2c-1.98-0.66-3.96-1.32-6-2v-5c-0.66-0.33-1.32-0.66-2-1 1-1 1-1 3.07-1.1 0.824 0.0116 1.65 0.0232 2.5 0.0352 1.24 0.0135 1.24 0.0135 2.5 0.0273 0.957 0.0174 0.957 0.0174 1.93 0.0352v-4c1.49-0.495 1.49-0.495 3-1v-3c-1.78-1.07-1.78-1.07-3-1h-3c-0.454-0.825-0.908-1.65-1.38-2.5-0.804-1.24-0.804-1.24-1.62-2.5-2.63-0.418-2.63-0.418-5 0-1.42-3.82-2.24-6.91-2-11 3.66-0.749 6.42-1.24 10 0-0.33-1.98-0.66-3.96-1-6 6.71 3.81 6.71 3.81 9.36 5.5 10.6 6 22.7 7.2 34.4 4.2 13-4.08 20.7-9.67 27-21.8 3.07-6.07 3.36-12 3.31-18.7-0.00193-0.701-0.00387-1.4-0.00586-2.12-0.0424-5.09-0.399-10-1.12-15.1z" fill="#DFE0E2"/>
<path transform="translate(543 734)" d="m0 0c9.22-0.696 20.5 3.02 27.9 8.41 8.81 7.76 15.2 18.2 17 29.9 0.621 13.6-0.217 23.6-8 35-0.701 1.05-1.4 2.1-2.12 3.19-7.5 8.58-19.6 12.2-30.5 13-13.4 0.511-24.5-3.94-34.5-12.4-4.23-3.93-6.83-7.36-8.81-12.8-0.295-0.651-0.59-1.3-0.895-1.97-4.78-11.7-2.68-26.1 1.89-37.5 5.48-11 14.9-17.8 26-22.5 4.01-1.28 7.91-1.71 12.1-2.28z"/>
<path transform="translate(1145 742)" d="m0 0c9.06 7.75 16.2 17.3 17.5 29.4 0.986 13.9 0.19 26.1-8.91 37.4-9.7 9.89-20.6 14.1-34.3 14.6-13.4-0.353-25.7-5.44-34.9-15.2-1.08-1.39-2.13-2.8-3.12-4.25-0.507-0.708-1.01-1.42-1.54-2.14-3.79-6.54-3.92-13-3.96-20.4-0.00955-1.45-0.00955-1.45-0.0193-2.94 0.229-13.1 4.63-24 14-33.2 15.3-13.1 38.8-15.2 55.3-3.12z"/>
<path transform="translate(787 742)" d="m0 0c9.53 7.96 15.6 17.7 17.2 30.1 0.945 12.6-0.321 23.7-8 34-0.419 0.594-0.838 1.19-1.27 1.8-5.76 7.48-14.4 12.7-23.6 14.8-9.57 1.11-20.4 0.627-29.2-3.63-0.964-0.463-1.93-0.926-2.92-1.4-11-5.81-17.4-13.8-21.1-25.6-3.3-11.8-1.56-24.7 4.24-35.3 1.18-1.97 2.44-3.86 3.76-5.73 0.557-0.846 1.11-1.69 1.69-2.56 15-15.8 41.1-19.1 59.1-6.49z"/>
<path transform="translate(1239,615)" d="m0 0c8.18-0.0463 16.4-0.0819 24.5-0.104 3.8-0.0104 7.6-0.0246 11.4-0.0473 3.66-0.0217 7.33-0.0337 11-0.0389 1.4-0.0037 2.8-0.0109 4.2-0.0217 1.96-0.0145 3.91-0.0154 5.87-0.0156 1.67-0.00666 1.67-0.00666 3.38-0.0135 2.63 0.241 2.63 0.241 4.63 2.24 0.241 2.75 0.241 2.75 0.227 6.29 2.92e-4 0.644 5.84e-4 1.29 8.85e-4 1.95-0.0014 2.13-0.017 4.26-0.0326 6.4-0.00373 1.48-0.00658 2.95-0.00858 4.43-0.00764 3.89-0.0273 7.78-0.0494 11.7-0.0204 3.97-0.0296 7.94-0.0397 11.9-0.0215 7.79-0.0556 15.6-0.0977 23.4 3.17 1.59 6.59 1.12 10.1 1.1 0.796-0.00141 1.59-0.00283 2.41-0.00429 2.55-0.00561 5.09-0.0182 7.64-0.0309 1.73-0.00501 3.45-0.00958 5.18-0.0137 4.23-0.011 8.47-0.0283 12.7-0.0488 1.21 2.42 1.12 3.93 1.11 6.63-7.55e-5 0.961-1.51e-4 1.92-2.29e-4 2.91-0.00516 1.04-0.0103 2.08-0.0156 3.15-0.00212 1.59-0.00212 1.59-0.00429 3.22-0.00561 3.4-0.0182 6.81-0.0309 10.2-0.00501 2.3-0.00958 4.61-0.0137 6.91-0.011 5.65-0.0278 11.3-0.0488 17-1.12 0.0251-2.23 0.0501-3.38 0.0759-4.12 0.0939-8.25 0.194-12.4 0.296-1.79 0.0434-3.58 0.0851-5.36 0.125-2.56 0.0576-5.13 0.121-7.69 0.186-0.804 0.0167-1.61 0.0334-2.44 0.0506-3.68-0.242-3.68-0.242-6.75 1.27-1.69 10.2-1.33 20.9-1.56 31.2-0.0433 1.83-0.0869 3.66-0.131 5.49-0.106 4.44-0.208 8.88-0.307 13.3h-1c-0.0412-1.09-0.0825-2.19-0.125-3.31-0.289-1.22-0.578-2.43-0.875-3.69-0.99-0.433-1.98-0.866-3-1.31-0.99-0.557-1.98-1.11-3-1.69-0.855-3.32-0.987-6.58-1-10-2.31-0.66-4.62-1.32-7-2-0.629-3.77-0.999-7.03-0.875-10.9 0.0612-3.18-0.504-5.53-1.62-8.5-1.74-4.83-2.52-9.53-1.5-14.6 2.25-2.06 2.25-2.06 5-3 0.99-0.402 0.99-0.402 2-0.812 2-0.188 2-0.188 4.17 0.824 3.61 1.26 6.35 0.968 10.1 0.613 1.25-0.111 2.51-0.222 3.8-0.336 0.953-0.0954 1.91-0.191 2.89-0.289v-1h10c-0.114-2.1-0.242-4.21-0.375-6.31-0.0696-1.17-0.139-2.34-0.211-3.55-0.2-3.29-0.2-3.29-2.41-6.14-0.0397-1.67-0.0438-3.33 0-5-1.18-1.42-1.18-1.42-4.56-1.06-1.13 0.0206-2.27 0.0412-3.44 0.0625v-2h2c-1.63-6.54-3.19-10.4-9-14-3.22-0.874-3.22-0.874-6-1v-2h-2c-0.315-1.52-0.627-3.04-0.938-4.56-0.174-0.847-0.348-1.69-0.527-2.57-1.2-6.43-1.78-12.8-2.1-19.3-0.0432-0.827-0.0864-1.65-0.131-2.51-0.105-2.02-0.206-4.04-0.307-6.06 0.66-0.33 1.32-0.66 2-1-0.33-0.66-0.66-1.32-1-2h2c-0.165-0.825-0.33-1.65-0.5-2.5-0.559-3.91-0.568-7.55-0.5-11.5-1.48-0.0269-2.96-0.0463-4.44-0.0625-0.824-0.0116-1.65-0.0232-2.5-0.0352-2.06-0.135-2.06-0.135-3.07 1.1l4 1h-5v3h-6v8c-1.48 0.495-1.48 0.495-3 1-0.33 1.65-0.66 3.3-1 5-2.31 0.25-2.31 0.25-5 0-1.81-2-1.81-2-3-4 0.33-0.33 0.66-0.66 1-1-6.36 0.399-6.36 0.399-12 3-0.124 0.66-0.247 1.32-0.375 2-0.206 0.66-0.412 1.32-0.625 2-2.94 1.31-2.94 1.31-6 2-0.99-0.495-0.99-0.495-2-1 0.0116 0.929 0.0232 1.86 0.0352 2.82 0.0453 6.2-0.158 12-1.04 18.2 0.329 3.69 0.97 6.9 2.06 10.4 1.12 4.26 1.36 7.17 0.938 11.6-1.29 1.7-2.62 3.37-4 5-0.802 3.69-0.802 3.69-1 7h2l3 3c0.99 0.33 1.98 0.66 3 1v5c-4.94 1.15-9.96 1.54-15 2v-5c-2.62-0.502-5.25-1-7.88-1.5-0.746-0.143-1.49-0.286-2.26-0.434-3.9-0.782-3.9-0.782-7.86-1.07-0.33 2.97-0.66 5.94-1 9-1.98 0.495-1.98 0.495-4 1-1.65-1.98-3.3-3.96-5-6 0.495-0.99 0.495-0.99 1-2 1.32 0.66 2.64 1.32 4 2-0.0105-0.898-0.0209-1.8-0.0317-2.72-0.0341-3.33-0.0591-6.66-0.0781-9.99-0.0101-1.44-0.0237-2.88-0.041-4.32-0.0242-2.07-0.0356-4.14-0.0444-6.21-0.0105-1.25-0.0209-2.49-0.0317-3.78 0.227-2.98 0.227-2.98 2.23-4.98 2.52-0.227 2.52-0.227 5.66-0.195 1.12 0.00645 2.24 0.0129 3.4 0.0195 1.18 0.0168 2.35 0.0335 3.56 0.0508 1.18 0.00902 2.37 0.018 3.59 0.0273 2.93 0.0236 5.86 0.0566 8.79 0.0977-0.00222-0.847-0.00444-1.69-0.00673-2.57-0.02-7.98-0.0353-16-0.0451-23.9-0.00522-4.1-0.0123-8.2-0.0236-12.3-0.0108-3.96-0.0168-7.91-0.0194-11.9-0.00185-1.51-0.00547-3.02-0.0109-4.53-0.00723-2.11-0.00826-4.22-0.0078-6.34-0.00222-1.2-0.00444-2.41-0.00673-3.65 0.12-2.82 0.12-2.82 1.12-4.82z" fill="#DFE0E2"/>
<path transform="translate(922 573)" d="m0 0c9.39 6.72 16.3 16 18.3 27.6 1.03 9.61 0.00111 17.7-4.76 26.2-0.392 0.804-0.784 1.61-1.19 2.44-5.24 7.41-13.4 12.9-22.1 15.2-12.2 1.78-23 0.957-33.2-6.43-1.97-1.65-3.81-3.23-5.48-5.18v-2c-0.593-0.201-1.19-0.402-1.8-0.609-4.82-3.05-6.74-10-8.2-15.4-1.07-8.14-0.352-15.5 3-23 0.267-0.686 0.534-1.37 0.809-2.08 3.68-8.57 12.1-14.6 20.2-18.9 11.2-3.92 24.2-3.92 34.5 2.18z" fill="#DFE0E2"/>
<path transform="translate(1163,766)" d="m0 0c0.568 1.7 1.13 3.41 1.68 5.12 0.249 0.764 0.498 1.53 0.754 2.32 0.246 0.762 0.492 1.52 0.746 2.31 1.78 4.9 3.15 6.76 7.82 9.25 1.33 0.835 1.33 0.835 2.69 1.69 2.16 1.48 2.16 1.48 4.31 1.31 0.495 2.48 0.495 2.48 1 5h2v7c-0.33-0.66-0.66-1.32-1-2l-2 1c0.495 4.46 0.495 4.46 1 9 0.66-0.33 1.32-0.66 2-1-0.33 1.32-0.66 2.64-1 4-3.46 0.495-3.46 0.495-7 1-0.144 1.26-0.289 2.52-0.438 3.81-0.3 2.61-0.721 4.66-1.56 7.19h-2c0.495 3.47 0.495 3.47 1 7h2c0.33 0.99 0.66 1.98 1 3 2.53 0 4.98-0.0982 7.5-0.312 0.773-0.058 1.55-0.116 2.34-0.176 2.57-0.611 3.35-1.65 5.16-3.51 3.19-0.188 3.19-0.188 6 0v-2c-0.66-0.33-1.32-0.66-2-1 4.36-2.62 8.93-3.31 13.9-2.56 0.681 0.186 1.36 0.371 2.06 0.562 0.937 3.61 1.21 5.49-0.215 8.99-0.568 0.951-1.14 1.9-1.72 2.88-0.566 0.967-1.13 1.93-1.71 2.93-0.445 0.724-0.889 1.45-1.35 2.2h-3c-1.15 1.93-1.15 1.93-1 4-2.24 9.17-10.8 13.8-18.4 18.6-12 6.73-25.8 11.1-39.6 12.4 1.62-1.71 3.29-3.37 5-5h2c-0.66-0.99-1.32-1.98-2-3-0.99 0.495-0.99 0.495-2 1-0.33-1.65-0.66-3.3-1-5 1.81-1.06 1.81-1.06 4-2 1.48 0.495 1.48 0.495 3 1 0.351-1.26 0.701-2.52 1.06-3.81 0.197-0.708 0.394-1.42 0.598-2.14 0.535-2.24 0.535-2.24-0.66-5.04-4.39 0.51-7.34 1.52-11 4 0.33 0.66 0.66 1.32 1 2-3.29 0.8-4.71 1.1-8 0-0.66 1.32-1.32 2.64-2 4-2.76-0.523-5.33-1.11-8-2v-2c3.88-1 3.88-1 5-1-0.348-1.98-0.348-1.98-1-4-0.99-0.495-0.99-0.495-2-1 0.0928-1.18 0.0928-1.18 0.188-2.38-0.0619-0.866-0.124-1.73-0.188-2.62-0.99-0.66-1.98-1.32-3-2-0.257-3.08-0.394-5.21 1-8-5.11-0.198-5.11-0.198-10 1-0.33 0.99-0.66 1.98-1 3-2 0.679-4 1.35-6 2-0.66 0.99-1.32 1.98-2 3-2.09 0.512-2.09 0.512-4.5 0.688-0.794 0.0657-1.59 0.131-2.41 0.199-1.36 0.0738-2.73 0.113-4.09 0.113-2 0.32-4 0.653-6 1 0.33-1.65 0.66-3.3 1-5 2.97-0.495 2.97-0.495 6-1-0.0116-0.58-0.0232-1.16-0.0352-1.76-0.0525-4.54 0.118-8.77 1.04-13.2l-2-1c-0.33 0.66-0.66 1.32-1 2v-6c-0.602-0.0735-1.2-0.147-1.82-0.223-2.97-1.06-3.53-2.47-4.99-5.21-0.44-0.803-0.879-1.61-1.33-2.43-0.423-1.05-0.423-1.05-0.855-2.13 0.33-0.66 0.66-1.32 1-2 0.594 0.459 1.19 0.918 1.8 1.39 6.1 4.52 11.9 7.45 19.2 9.61 0.634 0.192 1.27 0.384 1.92 0.582 11.2 2.25 23.3 0.254 33.2-5.35 9.61-6.61 14.8-14 17.9-25.2 0.536-4.21 0.648-8.38 0.688-12.6 0.0418-2.14 0.0872-4.28 0.137-6.41 0.0112-0.93 0.0224-1.86 0.0339-2.82 0.142-2.14 0.142-2.14 1.14-3.14z" fill="#DFE0E2"/>
<path transform="translate(654,816)" d="m0 0c2.3 2.3 2.33 3.13 2.81 6.25 0.972 4.88 2.88 7.11 6.19 10.8 0.57 1.79 0.57 1.79 1 4 0.223 0.951 0.446 1.9 0.676 2.88 1.33 6.77 1.71 11.3-1.63 17.4-2.95 7.66-1.93 15.4-0.605 23.3 1.47 9.57 1.91 18.8 1.56 28.4 1.65 0.33 3.3 0.66 5 1 0.33 0.99 0.66 1.98 1 3 1.49 0.495 1.49 0.495 3 1 3 4.33 3 4.33 3 7 3.4-1.06 6.01-2.01 9-4 3.56 0.125 3.56 0.125 7 1 1.56 1.75 1.56 1.75 2 4-0.875 2.75-0.875 2.75-2 5 0.99 0.33 1.98 0.66 3 1 0.33 1.65 0.66 3.3 1 5 0.784-0.186 1.57-0.371 2.38-0.562 2.62-0.438 2.62-0.438 4.62 0.562v-2c-0.99-0.495-0.99-0.495-2-1h2c-0.0838-0.771-0.168-1.54-0.254-2.34-0.102-1-0.204-2.01-0.309-3.04-0.157-1.5-0.157-1.5-0.316-3.02-0.121-2.6-0.121-2.6 0.879-4.6 2.06-0.625 2.06-0.625 4-1 0.182-1.39 0.182-1.39 0.367-2.81 0.168-1.2 0.335-2.4 0.508-3.63 0.162-1.19 0.325-2.39 0.492-3.62 0.209-0.971 0.418-1.94 0.633-2.94 0.66-0.33 1.32-0.66 2-1 0.33 0.66 0.66 1.32 1 2 4.53-10.4 4.35-22.2 4.62-33.3 0.0383-1.34 0.0774-2.68 0.117-4.01 0.0931-3.22 0.179-6.45 0.258-9.67h1v111c-15.8 0.0309-15.8 0.0309-31.9 0.0625-3.33 0.0091-6.66 0.0182-10.1 0.0276-2.62 0.00292-5.24 0.00547-7.87 0.00757-0.686 0.00261-1.37 0.00523-2.08 0.00792-2.01 0.00728-4.02 0.00776-6.03 0.00795-1.13 0.00222-2.27 0.00444-3.44 0.00673-2.55-0.12-2.55-0.12-3.55-1.12-0.0988-1.92-0.126-3.84-0.127-5.76-0.00282-1.25-0.00564-2.5-0.00854-3.79 0.00194-1.4 0.00399-2.8 0.00613-4.2-0.00135-1.46-0.00313-2.93-0.00531-4.39-0.00457-3.99-0.00278-7.98 3.79e-4 -12 0.00252-4.17 1.86e-4 -8.33-0.00139-12.5-0.00182-7 5.85e-4 -14 0.00534-21 0.00544-8.1 0.00368-16.2-0.00183-24.3-0.00453-6.95-0.00518-13.9-0.00256-20.8 0.00156-4.15 0.00176-8.31-0.00154-12.5-0.00288-3.9-8.97e-4 -7.81 0.00489-11.7 0.00133-1.44 9.36e-4 -2.87-0.00126-4.31-0.00272-1.95 0.00129-3.91 0.00568-5.86 3.77e-4 -1.1 7.54e-4 -2.19 0.00114-3.32 0.126-2.57 0.126-2.57 1.13-4.57z" fill="#DFE0E2"/>
<path transform="translate(822,688)" d="m0 0v2c-0.638 0.11-1.28 0.219-1.93 0.332-0.826 0.159-1.65 0.317-2.5 0.48-0.824 0.151-1.65 0.302-2.5 0.457-0.682 0.241-1.36 0.482-2.07 0.73-0.33 0.99-0.66 1.98-1 3 0.66 0.33 1.32 0.66 2 1 0.495 1.49 0.495 1.49 1 3-0.99 1.49-0.99 1.49-2 3-0.66-0.33-1.32-0.66-2-1l-1 1c-2.91 1.3-4.78 2-8 2v-5c-1.11-0.124-2.23-0.247-3.38-0.375-3.62-0.625-3.62-0.625-5.62-2.62-2.58-0.167-2.58-0.167-5 0-0.33 2.31-0.66 4.62-1 7h-4v-5c-1.98 0.33-3.96 0.66-6 1-0.33 3.3-0.66 6.6-1 10h4c1.06 5.29 1.06 5.29 1 8-1.94 2.31-1.94 2.31-4 4v3h-2v4h-2v3c-2.97 0.66-5.94 1.32-9 2 3.63 0.66 7.26 1.32 11 2-3.2 0.8-5.07 1.1-8.23 0.992-0.804-0.0168-1.61-0.0335-2.44-0.0508-1.66-0.0438-3.32-0.0957-4.98-0.156-10.8-0.189-19.2 4.19-28 9.96-5.82 5.66-9.32 12.8-12.3 20.2h-1c-0.33-2.31-0.66-4.62-1-7-1.32-0.33-2.64-0.66-4-1-1.61-4.02-0.213-7 1-11v-4c-0.66-0.33-1.32-0.66-2-1 4.62-4.88 4.62-4.88 8-6 0.33-0.99 0.66-1.98 1-3h2v-2h2v-9c-0.626-0.182-1.25-0.364-1.9-0.551-1.23-0.377-1.23-0.377-2.48-0.762-0.812-0.244-1.62-0.487-2.46-0.738-2.16-0.949-2.16-0.949-4.16-3.95-0.125-2.69-0.125-2.69 0-5 0.99-0.33 1.98-0.66 3-1-0.66-0.99-1.32-1.98-2-3-0.464-1.55-0.464-1.55-0.938-3.12-0.351-0.949-0.701-1.9-1.06-2.88-0.99-0.33-1.98-0.66-3-1-0.124-1.67-0.124-1.67-0.25-3.38-0.329-3.68-0.329-3.68-2.81-5.06-0.639-0.186-1.28-0.371-1.94-0.562 0.33-1.98 0.66-3.96 1-6 1.65-0.0269 3.29-0.0463 4.94-0.0625 0.917-0.0116 1.83-0.0232 2.78-0.0352 2.29 0.0977 2.29 0.0977 3.29 1.1 0.237 2.86 0.422 5.7 0.562 8.56 0.0432 0.806 0.0864 1.61 0.131 2.44 0.106 2 0.207 4 0.307 5.99 3.66 0 4.05-0.677 6.62-3.12 26.4-23.9 65.7-26.8 97.4-11.9z" fill="#DFE0E2"/>
<path transform="translate(953 557)" d="m0 0c1.19-0.0063 2.38-0.0126 3.61-0.0191 1.94 0.00607 1.94 0.00607 3.92 0.0123 1.34-0.00135 2.67-0.00329 4.01-0.0058 2.8-0.00295 5.6 0.00134 8.4 0.0107 3.59 0.0114 7.18 0.00484 10.8-0.00714 2.76-0.00723 5.52-0.00493 8.27 2.56e-4 1.97 0.00198 3.93-0.00409 5.9-0.0103 1.19 0.0063 2.39 0.0126 3.62 0.0191 1.58 0.00239 1.58 0.00239 3.19 0.00482 2.63 0.254 2.63 0.254 5.63 2.25 0.305 2.46 0.411 4.67 0.392 7.13 0.00594 0.743 0.0119 1.49 0.018 2.25 0.0164 2.5 0.0113 5.01 0.0065 7.51 0.00738 1.79 0.0161 3.58 0.026 5.37 0.0234 4.87 0.0285 9.75 0.0307 14.6 0.00565 5.1 0.0289 10.2 0.0506 15.3 0.0386 9.67 0.0628 19.3 0.0811 29 0.0333 17.3 0.0912 34.6 0.154 51.9 0.0215 6.07 0.0367 12.1 0.0468 18.2 0.00704 3.78 0.0179 7.57 0.0296 11.4 0.00454 1.75 0.0074 3.5 0.00842 5.25 0.00158 2.4 0.00919 4.79 0.0182 7.19-0.00107 0.687-0.00214 1.37-0.00324 2.08 0.0261 4.69 0.492 9.18 1.14 13.8-2.88 0.625-2.88 0.625-6 1-0.99-0.99-0.99-0.99-2-2h-3c-0.25-7.62-0.25-7.62 2-11 1.32 0.33 2.64 0.66 4 1 0.0291-4.37 0.0468-8.75 0.0625-13.1 0.0126-1.86 0.0126-1.86 0.0254-3.75 0.00322-1.2 0.00645-2.4 0.00977-3.63 0.00524-1.1 0.0105-2.2 0.0159-3.33-0.113-3.14-0.527-6.08-1.11-9.16-0.99 0.33-1.98 0.66-3 1-2.39-16.2-2.39-16.2 1-22h2c1.82-7 2.29-13.4 2.27-20.6 0.00264-1.11 0.00528-2.21 8e-3 -3.35 0.00381-3.57-0.00878-7.13-0.0236-10.7-0.00177-1.21-0.00354-2.42-0.00537-3.66-0.0316-18.3-0.482-36.4-2.24-54.7h-3c-0.99-0.0206-1.98-0.0412-3-0.0625-3.05-0.0847-3.05-0.0847-6 1.06l-1-1c-0.99 0.33-1.98 0.66-3 1-0.588-0.928-0.588-0.928-1.19-1.88-2.16-2.53-3.61-3.29-6.81-4.12-3.46 0.169-4.71 0.737-7.31 3.06-0.557 0.639-1.11 1.28-1.69 1.94-0.797-0.522-0.797-0.522-1.61-1.05-3.21-1.27-5.28-0.728-8.64-0.0703-1.08 0.204-2.16 0.407-3.27 0.617-1.23 0.251-1.23 0.251-2.48 0.508 0.0116 0.915 0.0232 1.83 0.0352 2.77 0.00902 1.19 0.018 2.38 0.0273 3.6 0.0116 1.18 0.0232 2.37 0.0352 3.59-0.0977 3.04-0.0977 3.04-1.1 5.04h-2c0.0619 1.11 0.0619 1.11 0.125 2.25-0.125 2.75-0.125 2.75-1.06 4.56-1.6 3.3-1.7 6.55-2.06 10.2h5c-0.99 4.95-0.99 4.95-2 10 0.66 0.33 1.32 0.66 2 1-0.162 0.509-0.325 1.02-0.492 1.54-0.679 3.29-0.64 6.42-0.633 9.77-0.00258 1.27-0.00516 2.55-0.00781 3.86 0.128 3.68 0.595 7.18 1.13 10.8-0.00476 1.38-0.0388 2.75-0.125 4.12-0.213 3.79-0.213 3.79 1.63 6.18 1.92 3.46 1.73 5.78 1.56 9.7-0.194 4.61-0.0947 7.82 1.94 12h2v-2h2c1.25 6.62 1.25 6.62-1 10-2.5 0.223-2.5 0.223-5.44 0.0625-4.56-0.286-4.56-0.286-8.56 1.94-0.457 1.89-0.457 1.89-0.406 4.06-0.0219 0.797-0.0438 1.59-0.0664 2.41-0.00902 0.833-0.018 1.67-0.0273 2.52-0.0178 1.65-0.0485 3.29-0.0938 4.94-0.0106 1.1-0.0106 1.1-0.0215 2.21-0.385 1.85-0.385 1.85-3.38 3.85-1.27-16.4-1.16-32.8-1.17-49.2-7.17e-4 -2.4-0.00286-4.81-0.0055-7.21-0.00919-8.39-0.0133-16.8-0.0125-25.2 6.05e-4 -7.81-0.01-15.6-0.0257-23.4-0.013-6.73-0.0184-13.5-0.0178-20.2 2.55e-4 -4.01-0.0026-8.02-0.0132-12-0.00964-3.76-0.00979-7.51-0.00248-11.3 0.00105-1.38-0.00134-2.76-0.00736-4.14-0.00766-1.88-0.0019-3.75 0.00463-5.63-5.45e-4 -1.05-0.00109-2.1-0.00165-3.19 0.513-5.11 3.58-4.73 7.94-4.73z" fill="#DFE0E2"/>
<path transform="translate(1111,681)" d="m0 0c-0.33 1.65-0.66 3.3-1 5 0.763 0.144 1.53 0.289 2.31 0.438 2.69 0.562 2.69 0.562 5.69 1.56-1.19 2.37-1.78 3.5-4 5-2.08-0.152-4.08-0.514-6.14-0.871-2-0.349-2-0.349-3.68 1.31-0.392 0.516-0.784 1.03-1.19 1.56h-3c-0.33 0.99-0.66 1.98-1 3-0.66-0.33-1.32-0.66-2-1v2h-5c0.495 3.96 0.495 3.96 1 8-0.619 0.0825-1.24 0.165-1.88 0.25-2.31 0.563-2.31 0.563-3.38 2.81-0.371 0.959-0.371 0.959-0.75 1.94h-7c-0.186 1.14-0.186 1.14-0.375 2.31-0.625 2.69-0.625 2.69-2.62 5.69-0.495-1.98-0.495-1.98-1-4-0.33 0.99-0.66 1.98-1 3l-2 1c0.99 0.66 1.98 1.32 3 2h-3c0.495 2.48 0.495 2.48 1 5h7v-2h6v2h15c0.33 0.99 0.66 1.98 1 3-0.495 0.99-0.495 0.99-1 2h2v2h13v1c-0.583 0.0864-1.17 0.173-1.77 0.262-11.9 2.04-22.4 6.23-30.2 15.7-3.74 5.81-6.95 12.1-8 19h-1v-7c-1.65-0.33-3.3-0.66-5-1v-2h-4c-1.56-1.44-1.56-1.44-3-3-0.99-0.33-1.98-0.66-3-1-0.495-3.47-0.495-3.47-1-7h-2c-0.185-9.41-0.185-9.41 1-14-3.04 1.67-3.04 1.67-4 4h-2c-0.33-0.99-0.66-1.98-1-3v3h-2v-3h-13v3c-1.75 1.75-1.75 1.75-4 3-2.25-0.312-2.25-0.312-4-1v5c-6.01 3.27-10.3 3.11-17 2 1.21-13.2 12.3-28.2 22.1-36.9 1.29-1.05 2.58-2.09 3.88-3.12 1.08-0.978 2.17-1.96 3.25-2.94 15-12.7 33.2-20.6 52.5-23.9 1.19-0.204 1.19-0.204 2.4-0.413 5.22-0.797 9.64-0.648 14.8 0.226z" fill="#DFE0E2"/>
<path transform="translate(805,773)" d="m0 0c0.278 0.58 0.557 1.16 0.844 1.76 1.45 2.82 3.18 5.41 4.94 8.05 2.65 4.78 3.57 9.7 4.28 15.1 0.246 1.83 0.246 1.83 0.496 3.69 0.146 1.13 0.291 2.27 0.441 3.44 0.115 0.887 0.229 1.77 0.348 2.69 0.224 1.77 0.44 3.54 0.652 5.31 0.99-0.33 1.98-0.66 3-1 0.124 1.13 0.247 2.27 0.375 3.44 0.309 1.76 0.309 1.76 0.625 3.56 0.66 0.33 1.32 0.66 2 1 1.47 6.32 0.897 11.2-2 17-1.94 2.06-1.94 2.06-4 3h-4v3h-5c-1-2-1-2-0.5-4.94 0.748-3.09 0.748-3.09-0.5-6.06-2.81-0.194-5.62-0.38-8.44-0.562-0.802-0.0561-1.6-0.112-2.43-0.17-2.04-0.129-4.09-0.203-6.13-0.268-0.33 0.33-0.66 0.66-1 1 5.44 0.495 5.44 0.495 11 1-0.495 0.99-0.495 0.99-1 2-1.27-0.0522-1.27-0.0522-2.56-0.105-7.06-0.169-12 0.382-18.4 3.11-4.02 0.386-6.55 0.123-10-2-0.33 0.99-0.66 1.98-1 3h-3l1 10 1-1c1.88-0.688 1.88-0.688 4-1 0.99 0.66 1.98 1.32 3 2h3v-8c2 1 2 1 3.12 3.88 1.29 4.61 0.875 9.35 0.875 14.1-6.62 1.12-6.62 1.12-10 0v-2c-1.24 0.0825-2.48 0.165-3.75 0.25-2.24 0.00781-2.24 0.00781-4.25-0.25l-4-4c-3.29-0.951-6.61-1.51-10-2-0.0516-0.615-0.103-1.23-0.156-1.86-0.364-2.59-0.788-4.73-1.84-7.14-1.99-1.32-3.72-1.88-6.03-2.46-1.97-0.535-1.97-0.535-4.97-2.54-1.02-3.3-1.11-4.67 0-8-2.97 0.495-2.97 0.495-6 1v-2c-1.32-0.66-2.64-1.32-4-2v-4c-1.36-0.0928-1.36-0.0928-2.75-0.188-4.03-1.01-5.1-2.33-7.25-5.81v-3h2c-0.495-1.49-0.495-1.49-1-3 2-2 2-2 4.62-2.12 0.784 0.0412 1.57 0.0825 2.38 0.125 0.33-0.99 0.66-1.98 1-3 2.91 2.22 4.95 3.93 7 7 12.3 8.08 25.9 11.7 40.6 9.45 10.1-2.74 19.3-8.52 25.2-17.3 4.58-7.98 5.91-15.6 6.81-24.7 0.395-3.44 0.395-3.44 1.39-6.44z" fill="#DFE0E2"/>
<path transform="translate(756 1088)" d="m0 0c3.44 0.375 3.44 0.375 5.44 2.38 0.254 2.61 0.254 2.61 0.259 5.95 0.0063 1.25 0.0126 2.5 0.0191 3.78-0.00358 1.37-0.00768 2.74-0.0123 4.11 0.00135 1.4 0.00329 2.8 0.0058 4.2 0.00295 2.94-0.00135 5.87-0.0107 8.81-0.0114 3.76-0.00485 7.52 0.00714 11.3 0.00724 2.89 0.00492 5.79-2.56e-4 8.68-0.00133 1.39 2.98e-4 2.77 0.00496 4.16 0.00509 1.94-0.00405 3.88-0.0138 5.82-0.00159 1.1-0.00318 2.21-0.00482 3.35-0.25 2.81-0.796 4.47-2.25 6.86-5.49 0.255-5.49 0.255-8.38-1.19-3.42-1.06-5.13 0.0879-8.32 1.44-5.64 1.83-11.4 1.28-17.1-0.312-6.81-4.06-11-8.81-13.6-16.3-1.88-7.47-1.06-14.7 2.34-21.6 3.72-6.1 7.87-11.2 15-13 7.36-0.854 13.3-0.0949 20 3-0.0348-1.18-0.0696-2.36-0.105-3.58-0.0281-1.56-0.0554-3.11-0.082-4.67-0.0251-0.777-0.0503-1.55-0.0762-2.36-0.0445-3.47-0.046-5.79 1.55-8.92 1.71-1.48 1.71-1.48 5.27-1.85z" fill="#DFE0E2"/>
<path transform="translate(871,805)" d="m0 0h3c0.495 0.99 0.495 0.99 1 2h2v2c0.897-0.742 0.897-0.742 1.81-1.5 2.19-1.5 2.19-1.5 5.19-1.5 0.495 4.95 0.495 4.95 1 10 0.804 0.227 1.61 0.454 2.44 0.688 2.56 1.31 2.56 1.31 3.44 3.44 0.109 2.51-0.0741 4.59-0.438 7.06-0.144 1.26-0.289 2.52-0.438 3.81l2 2c0.374 2.33 0.708 4.66 1 7 0.33 0.66 0.66 1.32 1 2l-1 2c-0.226 1.7-0.409 3.41-0.562 5.12-0.126 1.37-0.126 1.37-0.254 2.76-0.0606 0.699-0.121 1.4-0.184 2.12-4.3 1.47-8.62 2.77-13 4-0.0735 1.01-0.0735 1.01-0.148 2.05-0.0748 0.892-0.15 1.78-0.227 2.7-0.104 1.32-0.104 1.32-0.211 2.67-0.413 2.57-1.13 4.34-2.41 6.58-2 0.0425-4 0.0408-6 0-1-1-1-1-1.11-2.96 0.0124-1.29 0.0124-1.29 0.025-2.6 0.00653-0.971 0.0131-1.94 0.0198-2.94 0.0114-1.06 0.0229-2.11 0.0347-3.2 0.0126-2.22 0.025-4.43 0.0371-6.65 0.0248-3.51 0.0528-7.02 0.0862-10.5 0.0301-3.38 0.048-6.75 0.0642-10.1 0.0135-1.05 0.0269-2.11 0.0408-3.19 0.00338-0.978 0.00676-1.96 0.0102-2.96 0.00746-0.861 0.0149-1.72 0.0226-2.61-0.091-2.5-0.091-2.5-2.23-5.21-0.364 0.75-0.727 1.5-1.1 2.27-8.62 17.5-18.5 31.7-34.9 42.7-0.33-0.99-0.66-1.98-1-3h-2.94-11.1c-1.46-2.65-2-3.89-2-7h4c0.33-2.31 0.66-4.62 1-7 1.49-0.495 1.49-0.495 3-1 0.33-0.99 0.66-1.98 1-3l2-1c4.06-2.88 6.79-5.51 9-10 0.619-4.33 0.87-8.63 1-13h6v-8c0.748 0.0838 1.5 0.168 2.27 0.254 0.985 0.102 1.97 0.204 2.98 0.309 1.46 0.157 1.46 0.157 2.95 0.316 2.56 0.111 4.38-0.102 6.8-0.879v2l2-2c0.247 0.804 0.495 1.61 0.75 2.44 0.972 2.73 0.972 2.73 3.38 3.38 0.619 0.0619 1.24 0.124 1.88 0.188 0.598-0.928 1.2-1.86 1.81-2.81 2.19-3.19 2.19-3.19 3.94-4.88 1.59-1.37 1.59-1.37 1.25-4.31z" fill="#DFE0E2"/>
<path transform="translate(544,681)" d="m0 0c-3.75 2-3.75 2-6 2l2 1c-0.33 2.97-0.66 5.94-1 9h-3c-0.66 0.66-1.32 1.32-2 2-1.99 0.398-3.99 0.738-6 1-0.495 1.49-0.495 1.49-1 3-1.11 0.413-2.23 0.825-3.38 1.25-3.45 1.32-3.55 1.58-5.25 5.25-0.454 1.15-0.908 2.31-1.38 3.5-3.91 3.66-8.33 3.3-13.4 3.62-3.43 0.502-5.14 2-7.59 4.38-2.31 0.75-2.31 0.75-4 1v2c-0.71 0.121-1.42 0.242-2.15 0.367-0.919 0.168-1.84 0.335-2.79 0.508-0.917 0.162-1.83 0.325-2.78 0.492-0.754 0.209-1.51 0.418-2.29 0.633l-1 2c-0.99 0.33-1.98 0.66-3 1v3c-1.32 1.28-1.32 1.28-3.12 2.5-0.638 0.432-1.28 0.864-1.93 1.31-1.94 1.19-1.94 1.19-5.13 2.75-2.9 1.26-2.9 1.26-4.69 3.62-2.64 2.25-4.49 2.19-7.89 2.02-3.75-0.347-7.5-0.722-11.2-1.21-0.103 0.619-0.206 1.24-0.312 1.88-0.688 2.12-0.688 2.12-3.69 4.12 0-11.5 8.79-22.4 16.3-30.5 14.5-13.5 14.5-13.5 17.7-13.5v-2c21.1-12.6 45-22.3 70-18z" fill="#DFE0E2"/>
<path transform="translate(668 1025)" d="m0 0c1.71-0.00136 3.41-0.00315 5.12-0.00531 4.53-0.00446 9.05-0.00284 13.6 3.79e-4 4.77 0.00257 9.54 1.73e-4 14.3-0.00139 7.97-0.0018 15.9 5.4e-4 23.9 0.00534 9.22 0.00549 18.4 0.00364 27.7-0.00183 7.96-0.00453 15.9-0.00518 23.9-0.00256 4.74 0.00156 9.47 0.00177 14.2-0.00154 4.43-0.00288 8.86-9.06e-4 13.3 0.00489 1.63 0.00133 3.25 9.36e-4 4.88-0.00126 2.21-0.00272 4.42 6.74e-4 6.63 0.00568 1.86 5.66e-4 1.86 5.66e-4 3.75 0.00114 2.87 0.126 2.87 0.126 4.87 1.13 3.39 0.0258 6.76-0.0282 10.1-0.127 3.85-0.06 5.57-0.0637 8.85 2.13h-15v2c-21.8 0.133-43.5 0.263-65.3 0.391-10.1 0.0596-20.2 0.12-30.3 0.182-77.6 0.474-77.6 0.474-112 0.515-2.65 0.00328-5.3 0.00904-7.95 0.016-3.56 0.00871-7.12 0.011-10.7 0.0111-1.04 0.00357-2.08 0.00714-3.15 0.0108-0.93-0.00152-1.86-0.00303-2.82-0.00459-0.806 7.13e-4 -1.61 0.00143-2.44 0.00216-1.82-0.124-1.82-0.124-2.82-1.12-1.34-0.0963-2.69-0.124-4.04-0.123-1.31-0.00299-1.31-0.00299-2.66-0.00603-0.974 0.00291-1.95 0.00583-2.95 0.00883-1.54-0.00128-1.54-0.00128-3.11-0.00259-3.47-0.00166-6.93 0.00387-10.4 0.00932-2.47 2.82e-4 -4.95 1.24e-4 -7.42-4.43e-4 -5.34-2.28e-4 -10.7 0.00262-16 0.00824-7.72 0.00811-15.4 0.0107-23.2 0.012-12.5 0.00219-25 0.00885-37.6 0.0183-12.2 0.00917-24.3 0.0163-36.5 0.0205-0.749 2.63e-4 -1.5 5.25e-4 -2.27 7.96e-4 -3.76 0.0013-7.52 0.00257-11.3 0.00381-31.2 0.0104-62.4 0.0281-93.6 0.0503v-2h14v-2c0.835 5.7e-4 0.835 5.7e-4 1.69 0.00115 33.1 0.0225 66.2 0.0396 99.4 0.0499 3.99 0.00125 7.98 0.00254 12 0.00387 0.794 2.62e-4 1.59 5.25e-4 2.41 7.95e-4 12.8 0.00433 25.6 0.0122 38.4 0.0214 13.2 0.0094 26.3 0.0149 39.5 0.0169 8.11 0.00136 16.2 0.00563 24.3 0.0138 5.58 0.00535 11.2 0.00687 16.8 0.00558 3.21-6.3e-4 6.41 7.99e-4 9.62 0.0057 13.8 0.0201 27.6-0.193 41.4-0.758 9.49-0.383 19-0.504 28.4-0.491z" fill="#949597"/>
<path transform="translate(296,732)" d="m0 0c2.19 0.312 2.19 0.312 4 1 0.495 2.48 0.495 2.48 1 5 1.32 0.33 2.64 0.66 4 1-1.65 3.63-3.3 7.26-5 11 4.88-0.646 4.88-0.646 8-3-0.703 3.17-1.81 6.03-3.03 9.04-2.15 5.88-2.55 11.1-2.52 17.3-0.0103 1.07-0.0207 2.15-0.0313 3.26-0.0292 3.51-0.0309 7.02-0.0322 10.5-0.015 2.45-0.0317 4.9-0.0501 7.35-0.0435 6.42-0.0636 12.8-0.0787 19.3-0.0196 6.56-0.0616 13.1-0.102 19.7-0.0752 12.9-0.123 25.7-0.16 38.6h-43v-1c2.97-0.33 5.94-0.66 9-1v-2c4.4-2.47 8.04-3.33 13-4 0.99-0.99 0.99-0.99 2-2 0.66 0.33 1.32 0.66 2 1v-3c3.46-0.99 3.46-0.99 7-2-0.00524-0.584-0.0105-1.17-0.0159-1.77-0.0211-2.7-0.0339-5.4-0.0466-8.11-0.00838-0.918-0.0168-1.84-0.0254-2.78-0.0218-6.18 0.349-12.2 1.09-18.3-0.743 0.186-1.49 0.371-2.25 0.562-2.72 0.433-4.21 0.435-6.75-0.562-1.35-2.71-1.07-5.01-1-8 1.49 0.495 1.49 0.495 3 1v-4c2.97-0.495 2.97-0.495 6-1-0.0355-0.7-0.0711-1.4-0.108-2.12-0.16-3.23-0.307-6.46-0.455-9.69-0.0841-1.65-0.0841-1.65-0.17-3.33-0.273-6.16-0.176-12.1 0.481-18.2 0.416-4.38 0.435-8.75 0.439-13.1 0.0184-1.32 0.0184-1.32 0.0371-2.66 0.00193-0.843 0.00387-1.69 0.00586-2.55 0.00411-0.752 0.00822-1.5 0.0125-2.28-0.129-2.32-0.129-2.32-2.24-5-2.06-0.724-2.06-0.724-4-1-2.15-5.31-2.17-8.61-0.125-14 1.72-3.07 4.09-4.37 7.12-6.01 0.536-0.598 1.07-1.2 1.62-1.81 0.454-0.392 0.908-0.784 1.38-1.19z" fill="#E0E1E3"/>
<path transform="translate(812 1108)" d="m0 0c5.51 4.06 9.48 10.8 11.6 17.2 0.068 1.73 0.085 3.46 0.0625 5.19-0.00902 0.901-0.018 1.8-0.0273 2.73-0.0116 0.687-0.0232 1.37-0.0352 2.08-11.9 1.47-24 1.09-36 1 0.431 1.1 0.861 2.21 1.3 3.35 0.363 0.932 0.363 0.932 0.734 1.88 1.76 3.24 4.59 4.67 7.96 5.77 5.79 0.93 10.7-0.253 16.1-2.34 1.95-0.656 1.95-0.656 4.95-0.656 2 3 2 3 2.56 5.38-0.78 3.64-2.65 4.59-5.64 6.61-6.76 3.57-16.7 3.24-23.9 1.14-6.97-3.24-11.8-7.89-14.9-14.9-2.44-7.58-1.68-14.6 1.55-21.8 3.28-5.91 7.66-11 14-13.8 6.44-1.71 13.7-2.01 19.7 1.18z" fill="#E0E1E3"/>
<path transform="translate(1313,1016)" d="m0 0c6.21 2.21 14.1 5.49 18 11 0.104 3.24-1.27 4.31-3.44 6.75-2.56 2.25-2.56 2.25-4.56 2.25v2c-2.97 0.66-5.94 1.32-9 2 0.66-0.66 1.32-1.32 2-2-0.329-2.56-0.329-2.56-1-5v-1c-3.3-0.33-6.6-0.66-10-1v-2h-3v2h-4v-2c-3.15 0.138-6.29 0.287-9.44 0.438-0.898 0.0393-1.8 0.0786-2.72 0.119-1.28 0.0628-1.28 0.0628-2.59 0.127-0.791 0.0367-1.58 0.0733-2.4 0.111-1.87 0.011-1.87 0.011-2.86 1.21-2.78 0.094-5.53 0.12-8.31 0.105-0.904-8.04e-4 -1.81-0.00161-2.74-0.00244-3.13-0.00409-6.26-0.0155-9.39-0.0267-2.31-0.00461-4.61-0.00879-6.92-0.0126-5.25-0.00973-10.5-0.0228-15.8-0.0384-8.66-0.0256-17.3-0.0443-26-0.0625-21.1-0.0446-42.2-0.0999-63.4-0.156-10.7-0.0285-21.4-0.0563-32.1-0.084-19-0.0494-38.1-0.0994-57.1-0.15-18.5-0.0488-36.9-0.0974-55.4-0.146-1.15-0.00299-2.29-0.00597-3.47-0.00905-5.75-0.015-11.5-0.03-17.2-0.045-47.4-0.124-94.8-0.248-142-0.373v-1l6.15-0.586c0.61-0.137 1.22-0.273 1.85-0.414 0.33-0.66 0.66-1.32 1-2 0.659 3.8e-4 1.32 7.59e-4 2 0.00115 39.8 0.0228 79.5 0.0397 119 0.0499 4.86 0.00125 9.72 0.00254 14.6 0.00387 1.45 3.93e-4 1.45 3.93e-4 2.93 7.95e-4 13.4 0.00374 26.9 0.00986 40.3 0.018 23.2 0.0141 46.5 0.0232 69.7 0.0239 1.37 5.79e-5 1.37 5.79e-5 2.77 1.17e-4 71.8 0.00203 144-0.394 215-1.1-0.33-2.97-0.66-5.94-1-9z" fill="#ADAEB0"/>
<path transform="translate(379,743)" d="m0 0c1.94 0.812 1.94 0.812 4 2 1.03 3.09 0.975 4.53 0.562 7.69-0.102 0.808-0.204 1.62-0.309 2.45-0.0838 0.615-0.168 1.23-0.254 1.86 0.33-0.33 0.66-0.66 1-1 2.5-0.125 2.5-0.125 5 0 1.65 1.65 1.4 3.68 1.62 5.94 0.0954 0.896 0.191 1.79 0.289 2.71 0.0859 2.35 0.0859 2.35-0.914 4.35 0.99 0.33 1.98 0.66 3 1v6h2c1.12 1.56 1.12 1.56 2 4-0.79 4.09-1.47 7.5-5 10h-2v2c-0.99 0.66-1.98 1.32-3 2-1.19 2.05-1.19 2.05-2 4v-4h-2c-0.196 2.69-0.382 5.37-0.562 8.06-0.0561 0.752-0.112 1.5-0.17 2.28-0.307 4.72-0.0476 8.97 0.732 13.7 0.104 1.6 0.173 3.21 0.188 4.81 0.0142 0.749 0.0284 1.5 0.043 2.27-0.23 1.92-0.23 1.92-2.23 3.92v-2h-2c0.126 1.47 0.126 1.47 0.254 2.97 0.651 8.35 0.635 16.2-0.0625 24.6-0.217 3.89 0.0297 7.53 0.555 11.4 0.254 2.05 0.254 2.05 0.254 6.05-1.67 0.0427-3.33 0.0406-5 0-1.57-1.57-1.14-3.11-1.15-5.29-0.00834-0.927-0.0167-1.85-0.0253-2.81-0.00418-1.02-0.00837-2.05-0.0127-3.11-0.0124-1.61-0.0124-1.61-0.0251-3.25-0.0174-2.34-0.0326-4.68-0.0458-7.02-0.021-3.7-0.048-7.4-0.0767-11.1-0.0598-7.87-0.112-15.7-0.163-23.6-0.0591-9.1-0.122-18.2-0.192-27.3-0.0266-3.65-0.0474-7.3-0.068-10.9-0.0166-2.24-0.0335-4.48-0.0507-6.72-0.00418-1.01-0.00837-2.03-0.0127-3.08-0.0417-4.7-0.204-9.16-1.18-13.8h5v-6h1c0.33-1.65 0.66-3.3 1-5z" fill="#DFE0E2"/>
<path transform="translate(669,924)" d="m0 0c2.95 0.632 5.33 1.62 8 3 1.66 0.68 3.33 1.35 5 2v2c2.97 0.495 2.97 0.495 6 1-0.33 0.99-0.66 1.98-1 3h2v2c0.99-0.33 1.98-0.66 3-1-0.247 1.07-0.495 2.14-0.75 3.25-0.685 3.72-0.685 3.72 1.5 5.81 0.742 0.639 1.49 1.28 2.25 1.94 3.11 5.04 3.11 5.04 2.69 8.81-0.227 0.722-0.454 1.44-0.688 2.19 0 1.7 0.286 3.38 0.5 5.06 0.247 1.95 0.247 1.95 0.5 3.94-28.9 2.12-28.9 2.12-36-1h-3c0.66-2.31 1.32-4.62 2-7h2c-0.66-2.31-1.32-4.62-2-7l2-2c0.244-3.13 0.244-3.13 0.125-6.62-0.0271-1.78-0.0271-1.78-0.0547-3.6-0.0232-0.915-0.0464-1.83-0.0703-2.77 1.32-0.66 2.64-1.32 4-2 0.33 0.66 0.66 1.32 1 2-0.0116-0.603-0.0232-1.21-0.0352-1.83-0.00902-0.799-0.018-1.6-0.0273-2.42-0.0116-0.789-0.0232-1.58-0.0352-2.39 0.0938-2.27 0.465-4.19 1.1-6.36z" fill="#D6D7D9"/>
<path transform="translate(874 685)" d="m0 0c1.09 0.00143 2.19 0.00285 3.32 0.00432 1.86-0.00461 1.86-0.00461 3.75-0.00932 1.36 0.0069 2.71 0.0142 4.07 0.0218 1.38 0.00119 2.77 0.00164 4.15 0.00139 2.9 0.00157 5.81 0.00986 8.71 0.0233 3.73 0.017 7.46 0.0208 11.2 0.0201 2.86 2.71e-4 5.72 0.00575 8.58 0.013 1.38 0.00319 2.75 0.00516 4.13 0.00589 1.92 0.00216 3.84 0.0117 5.75 0.0216 1.64 0.00572 1.64 0.00572 3.31 0.0116 2.46 0.134 2.46 0.134 3.46 1.13 0.0885 2.52 0.115 5.01 0.0977 7.54-0.00141 0.753-0.00283 1.51-0.00429 2.28-0.00561 2.41-0.0182 4.83-0.0309 7.24-0.00501 1.63-0.00958 3.27-0.0137 4.9-0.011 4.01-0.0283 8.02-0.0488 12h-1c-0.0251-0.595-0.0501-1.19-0.0759-1.8-0.116-2.69-0.239-5.38-0.362-8.07-0.0393-0.937-0.0786-1.87-0.119-2.84-0.0419-0.896-0.0838-1.79-0.127-2.71-0.055-1.24-0.055-1.24-0.111-2.51-0.0877-2.12-0.0877-2.12-1.21-4.06-0.99 0.66-1.98 1.32-3 2-1.68-0.279-3.34-0.623-5-1h-3.62c-3.38 0-3.38 0-6.38-1v-5h-3c-0.33 0.66-0.66 1.32-1 2v-2c-2.65 0.642-5.29 1.29-7.94 1.94-0.755 0.182-1.51 0.365-2.29 0.553-3.69 0.648-3.69 0.648-6.78 2.51 1.32 0.33 2.64 0.66 4 1-2.64 0.33-5.28 0.66-8 1 0.34 1.64 0.34 1.64 0.688 3.31 0.312 3.69 0.312 3.69-0.75 5.69-2.85 1.47-4.9 0.741-7.94 0-0.0619 0.949-0.124 1.9-0.188 2.88-0.812 3.12-0.812 3.12-3.06 4.56-2.98 0.61-4.82 0.236-7.75-0.438-0.0494-4.09-0.0857-8.19-0.11-12.3-0.0101-1.39-0.0237-2.79-0.041-4.18-0.0242-2-0.0345-4-0.0444-6-0.0105-1.2-0.0209-2.41-0.0317-3.65 0.297-3.78 0.999-4.77 4.81-5.14z" fill="#DFE0E2"/>
<path transform="translate(915,591)" d="m0 0c0.178 4.55-0.00215 7.88-2 12 2.64 0.33 5.28 0.66 8 1 2.22 5.29 2.22 5.29 1.12 8.88-0.371 0.701-0.742 1.4-1.12 2.12h6v7c-2.02-0.0977-4.04-0.195-6.05-0.293-0.642 0.0967-1.28 0.193-1.95 0.293-2.18 2.68-2.18 2.68-2 5-3.13 1.04-3.99 0.934-7 0-0.0909 1.07-0.0909 1.07-0.184 2.15-0.0838 0.919-0.168 1.84-0.254 2.79-0.0812 0.917-0.162 1.83-0.246 2.78-0.316 2.29-0.316 2.29-1.32 3.29-1.67 0.0406-3.33 0.0427-5 0v2h-2c0.66 1.32 1.32 2.64 2 4-9.81 0.597-16.9-0.442-24.6-6.75-0.804-0.742-1.61-1.49-2.44-2.25l2-2c1.95 0.242 1.95 0.242 4.12 0.875 0.724 0.204 1.45 0.407 2.2 0.617 0.554 0.168 1.11 0.335 1.68 0.508-0.33-1.65-0.66-3.3-1-5h2c0.66 1.65 1.32 3.3 2 5-0.251-0.976-0.503-1.95-0.762-2.96-0.306-1.27-0.611-2.54-0.926-3.86-0.313-1.26-0.626-2.53-0.949-3.83-0.363-3.36-0.363-3.36 0.855-5.29 2.6-1.55 4.82-1.26 7.78-1.06 0.66 1.65 1.32 3.3 2 5 2.48-0.495 2.48-0.495 5-1-0.0116-0.603-0.0232-1.21-0.0352-1.83-0.00902-0.799-0.018-1.6-0.0273-2.42-0.0116-0.789-0.0232-1.58-0.0352-2.39 0.0977-2.36 0.0977-2.36 0.664-4.47 0.622-2.71-0.356-4.47-1.57-6.89 0.33-0.99 0.66-1.98 1-3-0.66-0.33-1.32-0.66-2-1h2v-2h-2v-7c5.23-0.756 9.77-1.21 15 0z" fill="#D6D7D9"/>
<path transform="translate(846,1107)" d="m0 0c3.82 6.48 7.01 13.1 9.88 20.1 0.31 0.75 0.62 1.5 0.94 2.27 2.19 5.4 2.19 5.4 2.19 7.66 2.45-0.192 2.45-0.192 5-1 1.2-1.67 1.2-1.67 1.81-3.94 1.9-5.27 3.9-10.5 6.06-15.6 0.316-0.81 0.631-1.62 0.956-2.45 0.919-2.17 1.78-4.08 3.17-5.98 3.14-1.09 3.14-1.09 6-1 1.94 1.06 1.94 1.06 3 3-0.46 4.81-2.01 9.02-3.88 13.4-0.449 1.07-0.449 1.07-0.908 2.16-2.84 6.66-5.81 13.3-8.84 19.8-0.455 1.01-0.91 2.03-1.38 3.07-0.445 0.945-0.89 1.89-1.35 2.86-0.39 0.845-0.78 1.69-1.18 2.56-1.86 2.63-3.38 3.26-6.47 4.07-4.85-1.8-6.61-5.22-8.69-9.69-0.327-0.68-0.655-1.36-0.992-2.06-3.1-6.55-5.98-13.2-8.82-19.9-0.446-1.03-0.891-2.06-1.35-3.12-0.41-0.983-0.821-1.97-1.24-2.98-0.368-0.872-0.736-1.74-1.12-2.64-0.92-3.06-1.14-5.45-0.791-8.63 3.23-2.15 4.28-2.2 8-2z" fill="#DFE0E2"/>
<path transform="translate(661 685)" d="m0 0c0.836 0.00719 1.67 0.0144 2.53 0.0218 1.29 6.87e-4 1.29 6.87e-4 2.6 0.00139 1.82 0.00302 3.63 0.0109 5.45 0.0233 2.79 0.0182 5.57 0.0205 8.35 0.0203 1.76 0.00492 3.52 0.0107 5.29 0.0176 0.836 0.00111 1.67 0.00223 2.53 0.00337 5.89 0.0485 5.89 0.0485 8.12 1.16v3c-0.66 0.33-1.32 0.66-2 1v3c-3.5 0.875-5.56 0.884-9 0-3.9-0.364-6.98-0.537-10.5 1.31-1.83 1.68-1.83 1.68-1.5 4.69-0.99-0.33-1.98-0.66-3-1-0.0374 0.915-0.0748 1.83-0.113 2.77-0.0657 1.19-0.131 2.38-0.199 3.6-0.058 1.18-0.116 2.37-0.176 3.59-0.169 1-0.338 2.01-0.512 3.04-0.99 0.66-1.98 1.32-3 2-0.684 1.32-1.35 2.66-2 4-0.519 0.442-1.04 0.884-1.57 1.34-1.64 1.58-1.64 1.58-1.57 3.89 0.11 0.791 0.219 1.58 0.332 2.4 0.0967 0.797 0.193 1.59 0.293 2.41 0.171 0.647 0.343 1.29 0.52 1.96 0.66 0.33 1.32 0.66 2 1-0.495 2.48-0.495 2.48-1 5-4.75 1.12-4.75 1.12-7 0-0.66 0.66-1.32 1.32-2 2-0.847-2.95-1.13-5.58-1.15-8.65-0.00638-0.914-0.0128-1.83-0.0193-2.77-0.00111-0.979-0.00223-1.96-0.00337-2.97-0.00333-1.01-0.00666-2.02-0.0101-3.06-0.00506-2.13-0.00741-4.27-0.00725-6.4-0.00219-3.27-0.0204-6.55-0.0393-9.82-0.00293-2.07-0.00492-4.14-0.00586-6.21-0.00719-0.983-0.0144-1.97-0.0218-2.98 0.00308-0.908 0.00615-1.82 0.00932-2.75-0.00143-0.801-0.00285-1.6-0.00432-2.43 0.616-4.88 4.34-4.2 8.37-4.21z" fill="#E0E1E3"/>
<path transform="translate(741,1116)" d="m0 0c4.21 2.49 6.85 5.63 9 10 0.892 6.56 0.475 12.3-3 18-3.27 3.04-5.99 4.28-10.4 4.62-5.42-0.247-8.91-2.83-12.6-6.62-2.67-4.12-2.89-9.23-2-14 2.07-4.4 4.71-7.88 8.38-11.1 3.64-1.3 6.81-1.63 10.6-0.938z"/>
<path transform="translate(933,733)" d="m0 0h1v139h-36v-1c9.02-0.69 17.9-1.15 27-1 0.33-1.32 0.66-2.64 1-4h2c0.33-0.66 0.66-1.32 1-2 0.66 0.33 1.32 0.66 2 1 1.16-3.48 1.13-6.13 1.12-9.81-0.00121-0.717-0.00242-1.43-0.00366-2.17-0.034-5.12-0.191-10.2-0.383-15.4-0.0485-1.3-0.097-2.6-0.147-3.94-0.1-2.59-0.208-5.18-0.323-7.77-0.282-7.14-0.163-14 0.595-21.1 0.136-2.81-0.189-5.09-0.864-7.81-0.99-0.33-1.98-0.66-3-1h2c-0.0206-1.22-0.0412-2.43-0.0625-3.69-0.0182-2.59 0.117-4.53 0.75-7.06 0.553-2.35 0.553-2.35-0.938-4.56-1.7-2.03-1.7-2.03-4.75-1.69-0.66-3.3-1.32-6.6-2-10-1.13 0.186-2.27 0.371-3.44 0.562-1.18 0.144-2.35 0.289-3.56 0.438-1-1-1-1-1.12-3.94 0.125-3.06 0.125-3.06 1.12-5.06 2.31 0.33 4.62 0.66 7 1 0.772-5.41 1.1-10.5 1-16h5v2c2.45-1.87 2.97-2.83 3.51-5.92 0.087-1.62 0.087-1.62 0.176-3.27 0.0657-1.09 0.131-2.17 0.199-3.29 0.0374-0.831 0.0748-1.66 0.113-2.52z" fill="#DFE0E2"/>
<path transform="translate(235,1026)" d="m0 0h119v2h-14c0.495 1.48 0.495 1.48 1 3h-105c-0.33-1.65-0.66-3.3-1-5z" fill="#131416"/>
<path transform="translate(1239,802)" d="m0 0h1c0.0825 1.01 0.165 2.02 0.25 3.06 0.485 3.57 1.91 5.91 3.83 8.96 1.75 3.76 1.76 7.89 1.92 12 0.99 0.33 1.98 0.66 3 1v2c0.701 0.0206 1.4 0.0412 2.12 0.0625 4.32 1.41 6.4 4.22 8.88 7.94 1.28 2.65 2.12 5.17 3 8 0.219 0.641 0.438 1.28 0.664 1.94 0.435 2.66-0.176 4.29-1.1 6.81-0.287 0.799-0.575 1.6-0.871 2.42-0.228 0.603-0.456 1.21-0.691 1.83-2.69 0.812-2.69 0.812-6 1-10.1-6.79-13.1-22.4-15.6-33.6-1.41-7.63-2.32-15.8-0.446-23.4z" fill="#DFE0E2"/>
<path transform="translate(525,729)" d="m0 0c1.02 1.66 2.02 3.32 3 5 0.979 1.02 1.98 2.02 3 3-1.39 0.762-1.39 0.762-2.82 1.54-6.62 3.67-12.7 7.21-18.2 12.5 0.33-1.32 0.66-2.64 1-4-2.97 1.12-5.33 2.22-8 4-6.33 0.333-6.33 0.333-9-1-0.188-3.38-0.188-3.38 0-7 0.99-0.66 1.98-1.32 3-2 1.01-1.66 2.01-3.33 3-5 0.66-0.33 1.32-0.66 2-1 0.413-0.969 0.825-1.94 1.25-2.94 1.75-3.06 1.75-3.06 4.25-4.44 5.98-1.07 12.3-2.09 17.5 1.38z" fill="#DFE0E2"/>
<path transform="translate(672 1025)" d="m0 0c1.32-0.00419 2.63-0.00839 3.99-0.0127 1.46 0.00548 2.91 0.0112 4.37 0.017 1.53-0.00107 3.07-0.00301 4.6-0.00575 4.17-0.00485 8.33 0.00281 12.5 0.013 4.36 0.00878 8.71 0.00702 13.1 0.00664 7.31 9.37e-4 14.6 0.00962 21.9 0.0233 8.46 0.0157 16.9 0.021 25.4 0.0203 8.13-6.1e-4 16.3 0.00449 24.4 0.0128 3.46 0.00354 6.93 0.00536 10.4 0.00589 4.08 1e-3 8.15 0.00709 12.2 0.0172 1.5 0.00293 3 0.00415 4.5 0.00357 2.04-4.88e-4 4.08 0.00577 6.12 0.0124 1.72 0.00251 1.72 0.00251 3.46 0.00508 2.67 0.129 2.67 0.129 4.67 1.13 3.39 0.0258 6.76-0.0282 10.1-0.127 3.85-0.06 5.57-0.0637 8.85 2.13-89.6 0.495-89.6 0.495-181 1v-2c3.51-2.16 6.31-2.25 10.4-2.25z" fill="#D6D7D9"/>
<path transform="translate(1244,725)" d="m0 0h2c0.33 3.63 0.66 7.26 1 11h2v2c0.99 0.33 1.98 0.66 3 1-0.33 1.32-0.66 2.64-1 4h-1c-0.098 0.915-0.196 1.83-0.297 2.77-0.15 1.19-0.299 2.38-0.453 3.6-0.139 1.18-0.278 2.37-0.422 3.59-0.828 3.04-0.828 3.04-2.85 4.29-0.652 0.249-1.3 0.498-1.98 0.754-1.57 4.81-0.598 8.3 1 13 0.99-0.495 0.99-0.495 2-1 0.335 1.48 0.668 2.96 1 4.44 0.186 0.824 0.371 1.65 0.562 2.5 0.438 2.07 0.438 2.07 0.438 3.07-1.11 0.124-2.23 0.247-3.38 0.375-3.66 0.272-3.66 0.272-5.62 2.62v-3h-2c-0.33-14.9-0.66-29.7-1-45-2.31-0.33-4.62-0.66-7-1v-1c2.64-0.33 5.28-0.66 8-1v-2c1.66-1.02 3.32-2.02 5-3 0.33-0.66 0.66-1.32 1-2z" fill="#DFE0E2"/>
<path transform="translate(840,1026)" d="m0 0c3.62-0.188 3.62-0.188 7 0v1c125 0.33 250 0.66 379 1v1h-388c0.66-0.99 1.32-1.98 2-3z" fill="#040507"/>
<path transform="translate(681 1028)" d="m0 0c1.61 2.83e-4 3.22 1.23e-4 4.82-4.43e-4 4.33-2.85e-4 8.66 0.00556 13 0.0126 4.54 0.00628 9.08 0.00684 13.6 0.00803 8.58 0.0031 17.2 0.0113 25.7 0.0213 9.78 0.0112 19.6 0.0167 29.3 0.0217 20.1 0.0104 40.2 0.028 60.3 0.0503v2c-57.4 0.33-115 0.66-174 1v-2c9.07-1.06 18.1-1.14 27.2-1.11z" fill="#6B6C6E"/>
<path transform="translate(551,860)" d="m0 0h10c0.66 1.32 1.32 2.64 2 4 1.9 0.55 1.9 0.55 4 0.5 2.16 0.164 2.16 0.164 4 0.5 2.02 2.52 2 3.75 2 7h-13v3c-1.36-0.0619-1.36-0.0619-2.75-0.125-3.12-0.124-3.12-0.124-5.06 1.12-2.91 1.33-5.25 1.19-8.44 1.12-1.08-0.018-2.16-0.0361-3.27-0.0547-0.82-0.0232-1.64-0.0464-2.48-0.0703-0.33-0.66-0.66-1.32-1-2 0.99-0.33 1.98-0.66 3-1 1.7-2.5 1.7-2.5 3-5h-2c0.33-1.32 0.66-2.64 1-4 1.18 0.0309 1.18 0.0309 2.38 0.0625 2.61 0.124 2.61 0.124 4.62-1.06 0.66 0.33 1.32 0.66 2 1v-5z" fill="#D6D7D9"/>
<path transform="translate(1334 816)" d="m0 0c3.24 2.53 3.69 6.01 4.69 9.88 0.318 1.14 0.318 1.14 0.643 2.3 1.04 3.77 1.97 7.53 2.67 11.4-2.72-2.35-3.81-4.62-5-8-0.66 0.33-1.32 0.66-2 1-1.89-0.0928-1.89-0.0928-3.81-0.188-4.29-0.0932-5.94 1.4-9.19 4.19-2.31-0.25-2.31-0.25-4-1-0.978-5.31-1.5-10.6-2-16 0.978-0.182 0.978-0.182 1.98-0.367 3.94-0.755 7.63-1.49 11.4-2.88 2.62-0.75 2.62-0.75 4.62-0.316z" fill="#DFE0E2"/>
<path transform="translate(438,844)" d="m0 0h1v28h-22v-1c3.96-0.33 7.92-0.66 12-1 0.907-4.53 0.929-7.48 0.5-12-0.405-4.27-0.574-7.83 0.5-12h8v-2z" fill="#E0E1E3"/>
<path transform="translate(1345,850)" d="m0 0h1c0.7 2.25 1.38 4.5 2.06 6.75 0.383 1.25 0.766 2.51 1.16 3.8 1.12 4.98 1.12 4.98-0.223 7.45-6.08 3.96-17 8.94-24.3 7.57-0.556-0.188-1.11-0.376-1.68-0.57 1.39-0.897 1.39-0.897 2.81-1.81 3.07-1.97 3.07-1.97 4.94-3.94 0.412-0.413 0.825-0.825 1.25-1.25h2v-2l2-1c0.658-3.03 0.658-3.03 1-6h2v-2c0.804-0.454 1.61-0.908 2.44-1.38 2.71-1.36 2.71-1.36 3.38-3.81 0.0928-0.897 0.0928-0.897 0.188-1.81z" fill="#DFE0E2"/>
<path transform="translate(664,1026)" d="m0 0c-0.66 0.33-1.32 0.66-2 1v2c-2.05 0.228-4.1 0.456-6.15 0.684-1.86 0.135-1.86 0.135-2.85 1.32-1.38 0.0928-2.77 0.117-4.15 0.114-0.881-7.55e-5 -1.76-1.51e-4 -2.67-2.29e-4 -0.957-0.00516-1.91-0.0103-2.9-0.0156-0.975-0.00141-1.95-0.00283-2.96-0.00429-3.13-0.00562-6.26-0.0182-9.38-0.0309-2.12-0.00501-4.23-0.00958-6.35-0.0137-5.2-0.0111-10.4-0.0278-15.6-0.0488 0.639-0.309 1.28-0.619 1.94-0.938 2-0.897 2-0.897 3.06-2.06 2.67-0.141 5.32-0.0425 8 0v-2c29.1-1.4 29.1-1.4 42 0z" fill="#101113"/>
<path transform="translate(933,803)" d="m0 0h1v69h-36v-1c9.02-0.69 17.9-1.15 27-1 0.33-1.32 0.66-2.64 1-4h2c0.33-0.66 0.66-1.32 1-2 0.66 0.33 1.32 0.66 2 1 1.16-3.48 1.13-6.13 1.12-9.81-4.83e-4 -0.716-9.67e-4 -1.43-0.00146-2.17-0.0304-5.14-0.203-10.3-0.42-15.4-0.053-1.31-0.106-2.61-0.161-3.96-0.11-2.6-0.23-5.2-0.362-7.81-0.332-7.9 0.167-15.1 1.82-22.9z" fill="#E0E1E3"/>
<path transform="translate(806,1116)" d="m0 0c3.14 2.23 4.75 4.94 5.62 8.71 0.124 0.757 0.247 1.51 0.375 2.29-17 0.199-17 0.199-23-1-0.33-0.66-0.66-1.32-1-2 1.4-3.22 2.72-4.81 5.62-6.81 4.25-1.5 7.93-2.2 12.4-1.19z"/>
<path transform="translate(456,830)" d="m0 0h8c0.998 1.73 1.99 3.46 2.98 5.2 0.738 1.3 1.5 2.59 2.27 3.86 1.04 2.68 0.879 5.09 0.75 7.94h-2c-0.33-0.99-0.66-1.98-1-3v3c-2.94-0.375-2.94-0.375-6-1l-1-2c-0.928-0.268-1.86-0.536-2.81-0.812-3.72-1.38-4.98-2.96-7.19-6.19 2.62-3.88 2.62-3.88 6-5v-2z" fill="#DFE0E2"/>
<path transform="translate(1014,816)" d="m0 0c1.49 0.99 1.49 0.99 3 2 1.01 0.144 2.02 0.289 3.06 0.438 0.969 0.186 1.94 0.371 2.94 0.562 0.99 1.49 0.99 1.49 2 3 2.58 0.25 2.58 0.25 5 0 2 3.75 2 3.75 2 6l2 1c-0.33 1.32-0.66 2.64-1 4v-3c-1.95 1.95-2.85 3.53-4 6-3.57-0.272-5.45-0.44-8.01-3.04-6.18-9.54-6.18-9.54-7.99-15 0.33-0.66 0.66-1.32 1-2z" fill="#DFE0E2"/>
<path transform="translate(789,838)" d="m0 0c2.16-0.293 2.16-0.293 4.62-0.188 0.817 0.0271 1.63 0.0541 2.48 0.082 0.94 0.0522 0.94 0.0522 1.9 0.105 1.37 2.73 1.13 4.98 1 8l-1 1c0.33 1.65 0.66 3.3 1 5h-12c0.33-0.99 0.66-1.98 1-3-1.32 0.33-2.64 0.66-4 1v3h-2c-0.66-4.29-1.32-8.58-2-13h3c0.33 0.66 0.66 1.32 1 2 3.28-0.752 3.28-0.752 5-4z" fill="#DEDFE1"/>
<path transform="translate(1217,1026)" d="m0 0c7.72-0.0761 15.4-0.129 23.2-0.165 2.63-0.0151 5.25-0.0355 7.88-0.0615 3.78-0.0364 7.56-0.0534 11.3-0.0667 1.17-0.0155 2.34-0.031 3.55-0.0469 5.84-0.0012 10.1 0.0421 15.1 3.34v2h-52v-2c12.5-0.33 25.1-0.66 38-1-23.3-0.495-23.3-0.495-47-1v-1z" fill="#404143"/>
<path transform="translate(650,818)" d="m0 0h3v18h-2v6c-2.65 1.46-3.89 2-7 2-0.125-5.75-0.125-5.75 1-8-0.99-0.33-1.98-0.66-3-1 0.597-4.35 2.18-7.53 4.38-11.3 0.909-1.6 0.909-1.6 1.84-3.24 0.59-0.808 1.18-1.62 1.79-2.45z"/>
<path transform="translate(683,893)" d="m0 0c1.49 0.99 1.49 0.99 3 2 0.66-0.66 1.32-1.32 2-2 1.12 5.62 1.12 5.62 0 9h3c0.33 0.66 0.66 1.32 1 2 0.268-0.804 0.536-1.61 0.812-2.44 0.392-0.846 0.784-1.69 1.19-2.56 0.99-0.33 1.98-0.66 3-1 0.33 0.66 0.66 1.32 1 2l-1 1 2 2c0.719 2.32 1.39 4.65 2 7-1.25 1.56-1.25 1.56-3 3-2.14-0.251-3.46-0.459-5-2-1.67-0.0406-3.33-0.0427-5 0-0.268-0.619-0.536-1.24-0.812-1.88-1.14-2.42-1.14-2.42-4.19-4.12-0.293-2.82-0.293-2.82-0.188-6.12 0.0271-1.1 0.0541-2.19 0.082-3.32 0.0348-0.843 0.0696-1.69 0.105-2.55z" fill="#DFE0E2"/>
<path transform="translate(946,840)" d="m0 0c2.31 0.33 4.62 0.66 7 1 1.29 4.12 2.26 7.67 2 12-2.26 1.13-2.54 1-5 1-0.765 3.56-1.28 7.07-1.62 10.7-0.0954 0.953-0.191 1.91-0.289 2.89-0.28 2.44-0.28 2.44 0.914 4.43-1.32-0.33-2.64-0.66-4-1-0.0291-4.23-0.0468-8.46-0.0625-12.7-0.00838-1.2-0.0168-2.4-0.0254-3.63-0.00322-1.16-0.00645-2.31-0.00977-3.51-0.00524-1.06-0.0105-2.13-0.0159-3.22 0.106-2.77 0.485-5.26 1.11-7.95z" fill="#DFE0E2"/>
<path transform="translate(453,706)" d="m0 0c0.33 1.98 0.66 3.96 1 6h2c0.438 2.12 0.438 2.12 0 5-2.13 2.28-4.5 4.15-7 6-0.66-0.33-1.32-0.66-2-1 0.33-0.33 0.66-0.66 1-1-1.98-0.66-3.96-1.32-6-2-0.625-5.12 0.689-7.6 3.61-11.6 2.53-2.59 4.05-2.53 7.39-1.42z" fill="#000002"/>
<path transform="translate(861 841)" d="m0 0c2.05 0.0326 4.1 0.0651 6.15 0.0977 0.33 1.32 0.66 2.64 1 4h2c-0.348 8.31-0.348 8.31-2.94 11.1-2.57 1.17-4.21 0.938-7.06 0.938-2-2-2-2-2.23-5 0.0142-1.17 0.0284-2.35 0.043-3.56 0.00967-1.77 0.00967-1.77 0.0195-3.57 0.224-3.82 0.224-3.82 3.02-3.97z" fill="#040507"/>
<path transform="translate(354,1026)" d="m0 0h125v1c-38.9 0.33-77.9 0.66-118 1v1c-10.4 0.495-10.4 0.495-21 1v-2h14v-2z" fill="#040507"/>
<path transform="translate(724,805)" d="m0 0c4.8 3.45 4.8 3.45 5.81 6.25 0.0619 0.577 0.124 1.15 0.188 1.75-1.65-0.99-3.3-1.98-5-3 0.498 2.76 0.498 2.76 2 5 0.0406 1.67 0.0427 3.33 0 5 1.65 0.33 3.3 0.66 5 1v1c-5.68 1.28-8.9 0.843-14-2-2.51-2.59-3-3.35-3-7h2c-0.33-0.99-0.66-1.98-1-3 2-2 2-2 4.62-2.12 0.784 0.0412 1.57 0.0825 2.38 0.125 0.33-0.99 0.66-1.98 1-3z" fill="#DFE0E2"/>
<path transform="translate(936,657)" d="m0 0h4c2.9 2.9 2.99 4.79 3.19 8.88-0.07 3.46-0.26 6.15-2.19 9.12-3.12 1.31-3.12 1.31-6 2-2.46-2.46-2.3-3.24-2.31-6.62 0.0809-5.06 1.27-8.78 3.31-13.4z" fill="#000002"/>
<path transform="translate(1156 784)" d="m0 0c2.56 0.438 2.56 0.438 4.5 2.44 1.49 4.2 0.48 6.9-0.938 11-0.289 0.969-0.578 1.94-0.875 2.94-1.12 2.06-1.12 2.06-3.25 2.88-0.619 0.0619-1.24 0.124-1.88 0.188 0.33-0.99 0.66-1.98 1-3-0.959-0.155-0.959-0.155-1.94-0.312-0.681-0.227-1.36-0.454-2.06-0.688-1.11-3.32-0.877-4.7-0.188-8.06 0.171-0.878 0.343-1.76 0.52-2.66 0.929-3.17 1.84-4.13 5.11-4.71z" fill="#050608"/>
<path transform="translate(746,821)" d="m0 0c2.29 0.0599 4.58 0.149 6.88 0.25 1.91 0.0696 1.91 0.0696 3.87 0.141 3.26 0.609 3.26 0.609 4.73 2.39 0.87 3.63 0.142 6.55-0.469 10.2h-11v-3c-0.634-3.68-2.32-6.69-4-10z" fill="#D6D7D9"/>
<path transform="translate(1009,819)" d="m0 0h1v53h-16v-1c3.47-0.495 3.47-0.495 7-1 0.33-2.64 0.66-5.28 1-8 0.804 0.0206 1.61 0.0412 2.44 0.0625 2.5 0.234 2.5 0.234 3.56-1.06 0.0763-2.68 0.0907-5.34 0.0625-8.02-0.00379-0.808-0.00757-1.62-0.0115-2.45-0.0164-3.47-0.0444-6.94-0.0715-10.4-0.0181-2.53-0.0302-5.06-0.042-7.58-0.0124-1.17-0.0124-1.17-0.0251-2.36-0.0173-3.86 0.141-7.43 1.09-11.2z" fill="#DFE0E2"/>
<path transform="translate(579,787)" d="m0 0c4 0 4 0 6 1 1.14 3.74 1.59 7.47 0.168 11.2-1.11 1.91-1.11 1.91-3.17 4.85-2.5-0.835-4.67-1.79-7-3 0.641-10.1 0.641-10.1 4-14z" fill="#040507"/>
<path transform="translate(1234 666)" d="m0 0c1.21 0.0309 1.21 0.0309 2.44 0.0625 0.33 1.32 0.66 2.64 1 4h2v7h-2c-0.33 1.65-0.66 3.3-1 5-1.65 0.33-3.3 0.66-5 1v-3c-0.51-0.451-1.02-0.902-1.55-1.37-1.45-1.63-1.45-1.63-1.34-4.08 0.211-0.884 0.423-1.77 0.641-2.68 0.201-0.889 0.402-1.78 0.609-2.7 0.902-3.07 0.931-3.16 4.2-3.24z" fill="#040507"/>
<path transform="translate(692 1144)" d="m0 0c1.81 0.875 1.81 0.875 3.81 3.88 0.313 2.72 0.133 5.24 0 8-1 1-1 1-4.88 1.25-2.55-0.0504-3.9-0.134-6.19-1.31-1.58-3.26-0.907-5.54 0.0625-8.94 2.49-2.15 3.87-3.06 7.19-2.88z" fill="#E0E1E3"/>
<path transform="translate(1235 819)" d="m0 0c2.44 0.875 2.44 0.875 3.75 2.5 0.935 3.23 0.935 6.03 0.688 9.38-0.66 0.66-1.32 1.32-2 2h-2c-1.35 0.635-2.68 1.3-4 2-2.23-3.35-2.3-4.64-2.31-8.56-0.0168-0.971-0.0335-1.94-0.0508-2.94 0.12-0.824 0.24-1.65 0.363-2.5 3-2 3-2 5.56-1.88z" fill="#050608"/>
<path transform="translate(941,591)" d="m0 0c2 1 2 1 3.11 2.91 1.3 4.49 1.22 8.81 1.21 13.5 0.0161 0.92 0.0322 1.84 0.0488 2.79 0.00409 5.73-0.703 9.74-3.36 14.8h-1c-0.753-6.98-1.11-13.9-1.12-20.9-0.00451-0.721-0.00902-1.44-0.0137-2.19 0.0105-3.75 0.24-7.23 1.14-10.9z" fill="#040507"/>
<path transform="translate(795,789)" d="m0 0c1.98 0.66 3.96 1.32 6 2 0.889 3 1.2 4.52 0.00391 7.46-0.476 0.777-0.951 1.55-1.44 2.36-0.473 0.79-0.946 1.58-1.43 2.39-0.373 0.592-0.745 1.18-1.13 1.79-3 0-3 0-5.38-1.94-1.62-3.06-1.62-3.06-1.28-5.33 1.13-3.51 2.02-6.1 4.66-8.73z" fill="#050608"/>
<path transform="translate(580,684)" d="m0 0c5.85 0.911 10.8 2.14 16 4.98 3.2 1.67 6.56 2.81 9.96 4.02v2c0.949 0.309 1.9 0.619 2.88 0.938 3.12 1.06 3.12 1.06 5.12 2.06-0.33 0.99-0.66 1.98-1 3-0.99-0.577-1.98-1.15-3-1.75-0.647-0.362-1.29-0.724-1.96-1.1-1.29-0.73-2.57-1.49-3.83-2.27-5.32-3.09-10.2-3.39-16.3-3.51-3.26-0.41-4.68-1.02-6.95-3.37v-3c-0.33-0.66-0.66-1.32-1-2z" fill="#DFE0E2"/>
<path transform="translate(705,758)" d="m0 0c2 2 2 2 2.2 4.16-0.0232 0.812-0.0464 1.62-0.0703 2.46-0.018 0.817-0.0361 1.63-0.0547 2.48-0.0348 0.94-0.0348 0.94-0.0703 1.9h-2c-0.33 1.65-0.66 3.3-1 5-2.64-0.33-5.28-0.66-8-1-0.688-2.81-0.688-2.81-1-6 1.12-1.81 1.12-1.81 3-3 0.846-0.124 1.69-0.247 2.56-0.375 0.804-0.206 1.61-0.413 2.44-0.625 1.37-2.48 1.37-2.48 2-5z" fill="#E0E1E3"/>
<path transform="translate(725,810)" d="m0 0c4.93 1.23 7.22 2.72 10 7v2c0.99 0.33 1.98 0.66 3 1v2c-1.43 0.391-2.87 0.762-4.31 1.12-0.801 0.209-1.6 0.418-2.43 0.633-2.26 0.242-2.26 0.242-5.26-1.76 0.99-0.33 1.98-0.66 3-1-0.99-0.33-1.98-0.66-3-1v-5h-2c0.33-1.65 0.66-3.3 1-5z" fill="#D6D7D9"/>
<path transform="translate(449,707)" d="m0 0c0.99 0.33 1.98 0.66 3 1-0.0871 1.46-0.195 2.92-0.312 4.38-0.058 0.812-0.116 1.62-0.176 2.46-0.512 2.16-0.512 2.16-3.51 4.16-2.19-0.375-2.19-0.375-4-1-0.75-1.62-0.75-1.62-1-4 3.18-5.59 3.18-5.59 6-7z" fill="#050608"/>
<path transform="translate(943,634)" d="m0 0c0.369 5.54 0.369 5.54-1.5 7.88-0.742 0.557-0.742 0.557-1.5 1.12l-1-1c-0.66 1.32-1.32 2.64-2 4h-3c-0.303-7.89-0.303-7.89 2-11 2.96-2 3.5-2.17 7-1z" fill="#050608"/>
<path transform="translate(819,871)" d="m0 0c-11.2 4.05-22 7.2-34 7 3.27-2.97 5.38-3.34 9.75-3.19 1.48 0.0406 1.48 0.0406 2.98 0.082 1.12 0.0522 1.12 0.0522 2.27 0.105-0.33-0.99-0.66-1.98-1-3 2.97 0.33 5.94 0.66 9 1v-2c4.02-0.696 7.08-1.17 11 0z" fill="#E0E1E3"/>
<path transform="translate(605,855)" d="m0 0c0.866 0.526 0.866 0.526 1.75 1.06 2.61 1.09 3.64 0.868 6.25-0.0625 0.33 1.32 0.66 2.64 1 4-5.29 4.06-5.29 4.06-8.88 3.75-0.701-0.247-1.4-0.495-2.12-0.75 0.33-0.763 0.66-1.53 1-2.31 1.17-2.68 1.17-2.68 1-5.69z" fill="#D7D8DA"/>
<path transform="translate(939,661)" d="m0 0c-0.114 1.6-0.242 3.21-0.375 4.81-0.0696 0.893-0.139 1.79-0.211 2.71-0.414 2.48-0.414 2.48-2.41 5.48h-3c-0.0271-1.44-0.0465-2.87-0.0625-4.31-0.0116-0.801-0.0232-1.6-0.0352-2.43 0.0977-2.26 0.0977-2.26 1.1-5.26 1.71-0.588 3.18-1 5-1z" fill="#050608"/>
<path transform="translate(720,839)" d="m0 0c3.93 1.31 6.36 2.79 9 6 0.33 1.32 0.66 2.64 1 4-2.97-0.33-5.94-0.66-9-1-0.33-2.97-0.66-5.94-1-9z" fill="#E0E1E3"/>
<path transform="translate(817,699)" d="m0 0c5.75 1.75 5.75 1.75 8 4h1c0.33 1.98 0.66 3.96 1 6-2.88 0.125-2.88 0.125-6 0-2.26-2.26-2.98-4-4-7v-3z" fill="#E0E1E3"/>
<path transform="translate(1436,672)" d="m0 0h2c3.44 18.8 3.44 18.8 3 28h-1c-0.674-3.73-1.34-7.46-2-11.2-0.191-1.06-0.382-2.11-0.578-3.2-0.18-1.02-0.361-2.04-0.547-3.1-0.168-0.937-0.335-1.87-0.508-2.84-0.356-2.6-0.434-5.06-0.367-7.68z" fill="#030406"/>
<path transform="translate(600,706)" d="m0 0c6.88 1.88 6.88 1.88 8 3 0.0406 1.67 0.0427 3.33 0 5-1.65 0.66-3.3 1.32-5 2-3-6.62-3-6.62-3-10z" fill="#E0E1E3"/>
<path transform="translate(651,836)" d="m0 0v6c-2.65 1.46-3.89 2-7 2-0.25-2.81-0.25-2.81 0-6 2.66-2.84 3.21-3.26 7-2z" fill="#050608"/>
<path transform="translate(1325,1023)" d="m0 0c2.47 1.15 4.05 2.05 6 4-0.238 2.46-0.864 3.81-2.31 5.81-1.69 1.19-1.69 1.19-3.88 0.875-0.598-0.227-1.2-0.454-1.81-0.688v-2c0.99-0.66 1.98-1.32 3-2-0.33-1.98-0.66-3.96-1-6z" fill="#D6D7D9"/>
<path transform="translate(582,698)" d="m0 0h5c0.33 2.97 0.66 5.94 1 9-4-1-4-1-6-3-0.125-3.12-0.125-3.12 0-6z" fill="#DFE0E2"/>
<path transform="translate(932,588)" d="m0 0c1.5 1 1.5 1 3 3 0.395 2.8 0.227 5.14 0 8l-2 2c-0.33-0.66-0.66-1.32-1-2h-2c-0.24-4.09 0.577-7.18 2-11z" fill="#D6D7D9"/>
<path transform="translate(591,699)" d="m0 0h5c1.06 2.38 1.06 2.38 2 5-1 2-1 2-2.94 2.69-2.06 0.312-2.06 0.312-4.06-0.688v-7z" fill="#DFE0E2"/>
<path transform="translate(868 1115)" d="m0 0c1.21 0.0309 1.21 0.0309 2.44 0.0625v5c-2.31 0.33-4.62 0.66-7 1 1.07-5.98 1.07-5.98 4.56-6.06z" fill="#050608"/>
<path transform="translate(1129 680)" d="m0 0c1.74 0.153 1.74 0.153 3.52 0.309 0.88 0.0838 1.76 0.168 2.67 0.254-6.56 3.42-11.1 3.03-18 1v-1c4.1-1.04 7.61-0.944 11.8-0.562z" fill="#E0E1E3"/>
<path transform="translate(1010,733)" d="m0 0c0.99 1.49 0.99 1.49 2 3 0.99-0.66 1.98-1.32 3-2-0.438 4.56-0.85 7.58-4 11-0.961-2.88-1.11-4.7-1.06-7.69 0.00902-0.808 0.018-1.62 0.0273-2.45 0.0116-0.615 0.0232-1.23 0.0352-1.86z" fill="#050608"/>
<path transform="translate(649,732)" d="m0 0c2.98 3.07 3.96 4.46 4.25 8.81-0.0825 1.05-0.165 2.1-0.25 3.19-4.71-4.35-4.71-4.35-5.94-7.12-0.0625-1.88-0.0625-1.88 1.94-4.88z" fill="#050608"/>
<path transform="translate(824,690)" d="m0 0c4.11 1.45 7.51 3.38 11 6 0.33 0.99 0.66 1.98 1 3-4.78-1.64-8.79-4.27-13-7 0.33-0.66 0.66-1.32 1-2z" fill="#E0E1E3"/>
<path transform="translate(1010,816)" d="m0 0h2c2.84 3.72 3.32 6.37 3 11-2.5-1.56-2.5-1.56-5-4-0.312-3.75-0.312-3.75 0-7z" fill="#050608"/>
<path transform="translate(1189 856)" d="m0 0c0.784 0.0412 1.57 0.0825 2.38 0.125-1.13 3.29-1.99 4-5.12 5.75-1.42 0.619-1.42 0.619-2.88 1.25-0.66-0.99-1.32-1.98-2-3 0.99-0.66 1.98-1.32 3-2 2-2 2-2 4.62-2.12z" fill="#D6D7D9"/>
<path transform="translate(866,730)" d="m0 0c2 1 2 1 4 3 0.369 2.75 0.183 5.2 0 8h-2v-2c-0.99-0.33-1.98-0.66-3-1 0.33-2.64 0.66-5.28 1-8z" fill="#040507"/>
<path transform="translate(601,692)" d="m0 0c2.48 0.495 2.48 0.495 5 1v2c0.949 0.309 1.9 0.619 2.88 0.938 3.12 1.06 3.12 1.06 5.12 2.06-0.33 0.99-0.66 1.98-1 3-1.7-0.969-3.41-1.94-5.11-2.92-1.6-0.916-3.21-1.81-4.83-2.71-0.681-0.454-1.36-0.908-2.06-1.38v-2z" fill="#DEDFE1"/>
<path transform="translate(867,818)" d="m0 0c0.66 0.33 1.32 0.66 2 1 0.625 3.06 0.625 3.06 1 6h-2c-0.33 0.99-0.66 1.98-1 3h-1c-1.25-6.62-1.25-6.62 1-10z" fill="#040507"/>
<path transform="translate(620,738)" d="m0 0h4v2c0.66 0.33 1.32 0.66 2 1-1 2-1 2-2.94 2.69-2.06 0.312-2.06 0.312-4.06-0.688 0.33-1.65 0.66-3.3 1-5z" fill="#E0E1E3"/>
<path transform="translate(520,826)" d="m0 0h10v2c-3.63 0.66-7.26 1.32-11 2 0.33-1.32 0.66-2.64 1-4z" fill="#D6D7D9"/>
<path transform="translate(650,818)" d="m0 0h3c-0.615 5.54-0.615 5.54-2.56 7.88-0.474 0.371-0.949 0.742-1.44 1.12-0.625-2.81-0.625-2.81-1-6 0.66-0.99 1.32-1.98 2-3z" fill="#050608"/>
<path transform="translate(828,1028)" d="m0 0h9v3h-8c-0.33-0.99-0.66-1.98-1-3z" fill="#050608"/>
</svg>
